<svg viewBox="0 0 827 1271" fill="none" xmlns="http://www.w3.org/2000/svg">
<path d="M445.611 56.3099C444.157 66.2321 441.812 75.9102 439.441 85.6553C427.798 133.513 426.388 163.191 458.443 204.4C486.196 240.08 647.913 369.956 559.858 420.751C541.926 431.095 522.594 437.218 504.344 446.596C494.538 451.635 473.335 457.35 468.495 468.228C460.51 486.176 500.414 509.807 509.544 524.477C519.498 540.472 511.504 535.972 494.47 538.139C459.956 542.531 405.647 536.496 387.888 574.796C367.8 618.118 398.331 650.19 418.524 684.229C427.283 698.995 430.411 739.551 414.306 751.207C403.743 758.851 378.879 756.868 367.149 756.99C337.433 757.3 308.042 751.773 278.301 752.926C251.236 753.975 248.602 759.897 238.45 782.748C231.474 798.451 220.663 805.532 205.211 812.046C198.491 814.879 180.444 817.449 178.687 827.39C176.603 839.178 195.433 854.238 203.254 861.055C215.491 871.722 222.329 881.94 228.386 897.231C232.276 907.049 259.834 959.323 245.546 969.957C215.643 992.212 174.816 978.214 141.717 982.743C132.973 983.939 103.444 990.839 103.857 1004.08C104.404 1021.66 120.978 1036.32 131.283 1048.81C146.2 1066.89 157.864 1107.04 133.83 1123.13C117.204 1134.26 119.982 1130.97 117.058 1150.92" stroke="#FFE595" stroke-width="3" stroke-linecap="round"/>
<path d="M824.707 129.438C740.734 95.9993 693.806 221.083 680.865 279.617C677.091 296.687 670.55 326.118 679.589 342.817C691.381 364.603 705.777 381.737 711.881 406.636C717.652 430.178 715.81 455.16 698.01 472.795C687.208 483.497 673.332 489.635 659.873 496.255C635.463 508.263 613.033 521.457 591.63 538.301C554.232 567.734 520.723 601.543 547.697 649.506C577.952 703.303 653.37 800.444 595.915 859.378C574.871 880.963 540.174 886.42 511.167 885.834C491.636 885.439 471.818 885.533 452.353 883.864C440.453 882.845 428.641 879.869 416.653 881.262C392.107 884.113 387.447 895.014 376.961 917.226C371.589 928.605 360.152 940.765 358.655 953.535C357.512 963.294 365.2 968.014 370.06 975.101C382.717 993.557 395.063 1017.28 388.171 1040.17C379.182 1070.02 330.271 1047.09 309.593 1057.86C289.963 1068.08 277.05 1099.71 269.976 1118.78C261.324 1142.11 263.549 1153.54 277.701 1172.03C287.208 1184.45 294.257 1197.99 302.619 1211.09" stroke="#B7D56F" stroke-width="3" stroke-linecap="round"/>
<path d="M462.441 59.1325C458.974 67.9202 455.229 78.325 451.919 89.3106C439.653 136.563 437.652 167.053 467.834 207.816C494.025 242.71 647.402 368.349 563.858 417.201C547.378 427.99 529.687 434.526 512.647 444.56C503.642 450.426 483.424 456.993 477.991 468.234C470.088 485.572 507.735 508.428 516.086 522.627C525.216 538.089 517.304 533.951 500.765 536.139C466.76 540.858 414.035 535.634 396.034 572.922C375.081 615.636 402.572 647.995 423.13 682.67C433.037 699.218 439.783 742.221 421.869 756.257C410.856 764.597 385.552 762.999 372.999 763.144C344.234 763.365 315.793 758.034 286.997 759.055C260.75 759.987 257.753 765.631 247.546 787.353C240.282 802.277 229.391 808.882 214.09 815.14C206.523 818.032 189.142 820.954 187.01 831.505C184.768 843.283 202.149 858.302 209.546 865.432C221.143 876.098 228.002 886.051 233.975 900.954C237.978 910.735 264.385 961.09 250.959 971.686C222.625 993.298 183.891 980.382 152.227 985.142C143.566 987.701 113.023 993.246 112.425 1006.44C111.989 1023.73 127.216 1039.29 136.716 1052.15C150.529 1070.56 161.649 1109.37 139.44 1125.44C124.061 1136.54 127.097 1134.05 124.687 1153.63" stroke="#FCE493" stroke-width="3"/>
<path d="M479.31 61.9944C473.838 69.6338 468.689 80.7557 464.431 92.9756C451.547 139.62 448.949 170.917 477.261 211.222C501.896 245.32 646.964 366.665 567.944 413.606C552.912 424.851 536.858 431.81 521.023 442.51C512.814 449.209 493.575 456.634 487.546 468.233C479.73 484.963 515.126 507.029 522.7 520.75C531.012 535.675 523.178 531.899 507.134 534.111C473.635 539.162 422.487 534.758 404.253 571.033C382.438 613.133 406.886 645.76 427.806 681.073C438.848 699.411 449.196 744.888 429.457 761.291C417.988 770.323 392.241 769.108 378.866 769.27C351.05 769.408 323.558 764.279 295.708 765.176C270.279 765.996 266.922 771.361 256.666 791.953C249.12 806.095 238.153 812.224 223.003 818.228C214.59 821.173 197.871 824.451 195.361 835.61C192.962 847.377 208.894 862.346 215.864 869.785C226.821 880.446 233.704 890.134 239.596 904.649C243.713 914.394 268.981 962.823 256.418 973.386C229.656 994.367 193.007 982.548 162.776 987.549C154.189 991.47 122.64 995.654 121.032 1008.79C119.616 1025.79 133.489 1042.24 142.181 1055.46C154.888 1074.18 165.473 1111.65 145.089 1127.73C130.958 1138.82 134.246 1137.1 132.352 1156.33" stroke="#F8E391" stroke-width="3"/>
<path d="M496.21 64.8945C488.741 71.3719 482.182 83.2015 476.967 96.6492C463.469 142.681 460.269 174.783 486.715 214.616C509.8 247.909 646.589 364.905 572.105 409.966C558.518 421.676 544.099 429.071 529.464 440.444C522.045 447.982 503.778 456.272 497.152 468.224C489.427 484.347 522.577 505.608 529.379 518.847C536.874 533.229 529.117 529.816 513.567 532.055C480.572 537.442 430.995 533.869 412.533 569.13C389.86 610.611 411.266 643.484 432.542 679.439C444.707 699.575 458.64 747.55 437.06 766.307C425.129 776.029 398.937 775.194 384.74 775.367C357.874 775.429 331.329 770.509 304.424 771.288C279.814 772.001 276.1 777.084 265.803 796.547C257.979 809.905 246.94 815.558 231.942 821.308C222.683 824.3 206.624 827.94 203.73 839.704C201.174 851.459 215.657 866.368 222.2 874.113C232.517 884.765 239.425 894.189 245.238 908.316C249.469 918.025 273.612 964.52 261.912 975.057C236.727 995.417 202.155 984.709 173.355 989.961C164.832 995.246 132.286 998.061 129.669 1011.13C127.274 1027.83 139.788 1045.17 147.67 1058.74C159.268 1077.78 169.329 1113.9 150.769 1129.99C137.885 1141.07 141.42 1140.15 140.045 1159.01" stroke="#F5E38F" stroke-width="3"/>
<path d="M513.133 67.8319C503.676 73.1339 495.702 85.6616 489.522 100.331C475.413 145.747 471.606 178.649 496.189 217.999C517.729 250.475 646.272 363.068 576.336 406.281C564.191 418.467 551.402 426.307 537.963 438.362C531.328 446.744 514.028 455.906 506.801 468.209C499.171 483.725 530.082 504.165 536.114 516.917C542.798 530.75 535.114 527.701 520.058 529.97C487.564 535.696 439.552 532.966 420.869 567.211C397.343 608.067 415.703 641.167 437.332 677.765C450.609 699.708 468.109 750.206 444.671 771.306C432.275 781.714 405.634 781.255 390.615 781.435C364.699 781.427 339.099 776.721 313.141 777.389C289.35 778.002 285.279 782.8 274.949 801.133C266.853 813.705 255.744 818.882 240.901 824.381C230.794 827.414 215.392 831.419 212.112 843.785C209.399 855.528 222.434 870.366 228.546 878.416C238.224 889.054 245.159 898.214 250.896 911.952C255.241 921.627 278.273 966.181 267.436 976.699C243.832 996.449 211.328 986.865 183.958 992.379C175.489 999.027 141.955 1000.47 138.329 1013.47C134.958 1029.86 146.106 1048.07 153.176 1062C163.663 1081.33 173.209 1116.11 156.472 1132.22C144.836 1143.3 148.612 1143.17 147.759 1161.69" stroke="#F1E28D" stroke-width="3"/>
<path d="M530.143 70.8176C518.705 74.9306 509.312 88.1468 502.158 104.031C487.444 148.827 483.023 182.526 505.747 221.38C525.749 253.03 646.077 361.164 580.701 402.561C569.993 415.232 558.832 423.53 546.584 436.275C540.727 445.507 524.388 455.547 516.557 468.196C509.026 483.106 537.704 502.711 542.97 514.97C548.846 528.249 541.233 525.564 526.671 527.868C494.675 533.936 448.221 532.058 429.324 565.287C404.949 605.513 420.263 638.819 442.241 676.064C456.616 699.821 477.666 752.867 452.355 776.297C439.488 787.389 412.395 787.303 396.554 787.482C371.588 787.411 346.931 782.927 321.92 783.49C298.948 784.008 294.524 788.519 284.168 805.723C275.806 817.508 264.63 822.207 249.943 827.455C238.988 830.524 224.241 834.899 220.569 847.866C217.699 859.595 229.287 874.353 234.967 882.704C244.005 893.325 250.97 902.22 256.633 915.569C261.093 925.21 283.027 967.817 273.053 978.32C251.033 997.472 220.59 989.028 194.647 994.812C186.223 1002.82 151.711 1002.88 147.076 1015.8C142.73 1031.89 152.508 1050.96 158.762 1065.24C168.138 1084.86 177.177 1118.29 162.264 1134.44C151.875 1145.53 155.887 1146.19 155.558 1164.36" stroke="#EEE18C" stroke-width="3"/>
<path d="M547.251 73.8544C533.841 76.7648 523.023 90.6599 514.888 107.752C499.571 151.926 494.531 186.418 515.401 224.764C533.87 255.577 646.015 359.196 585.21 398.809C575.937 411.976 566.401 420.742 555.338 434.186C550.254 444.273 534.869 455.198 526.432 468.189C519.004 482.495 545.455 501.249 549.959 513.011C555.031 525.73 547.486 523.41 533.417 525.751C501.917 532.164 457.015 531.151 437.91 563.362C412.69 602.952 424.957 636.444 447.279 674.338C462.74 699.917 487.324 755.536 460.123 781.283C446.78 793.055 419.232 793.34 402.568 793.514C378.553 793.386 354.838 789.13 330.774 789.594C308.622 790.023 303.845 794.245 293.471 810.319C284.848 821.315 273.609 825.537 259.079 830.535C247.276 833.634 233.181 838.383 229.114 851.948C226.087 863.662 236.228 878.331 241.473 886.98C249.873 897.579 256.869 906.21 262.461 919.17C267.036 928.778 287.886 969.43 278.775 979.926C258.343 998.49 229.953 991.199 205.434 997.263C197.046 1006.64 161.564 1005.31 155.922 1018.15C150.603 1033.91 159.004 1053.84 164.441 1068.46C172.703 1088.37 181.245 1120.45 168.155 1136.65C159.013 1147.76 163.256 1149.21 163.453 1167.03" stroke="#EAE08A" stroke-width="3"/>
<path d="M564.467 76.945C549.092 78.6395 536.845 93.2039 527.72 111.498C511.805 155.045 506.142 190.326 525.159 228.151C542.102 258.118 646.098 357.169 589.875 395.029C582.033 408.701 574.118 417.947 564.235 432.098C559.917 443.045 545.48 454.862 536.436 468.191C529.115 481.893 553.345 499.781 557.089 511.041C561.362 523.196 553.882 521.24 540.307 523.622C509.299 530.385 465.943 530.245 446.637 561.438C420.575 600.387 429.794 634.044 452.456 672.591C468.992 699.999 497.091 758.216 467.984 786.268C454.161 798.717 426.156 799.369 408.669 799.532C385.605 799.353 362.828 795.332 339.712 795.703C318.381 796.049 313.254 799.979 302.869 814.925C293.99 825.13 282.69 828.874 268.319 833.623C255.668 836.746 242.222 841.874 237.756 856.034C234.571 867.733 243.267 882.303 248.076 891.247C255.837 901.819 262.866 910.187 268.39 922.757C273.08 932.334 292.86 971.024 284.612 981.518C265.772 999.506 239.426 993.381 216.329 999.736C207.968 1010.48 171.525 1007.75 164.875 1020.5C158.587 1035.94 165.605 1056.71 170.223 1071.67C177.368 1091.86 185.423 1122.58 174.155 1138.84C166.26 1149.98 170.728 1152.23 171.454 1169.7" stroke="#E7E088" stroke-width="3"/>
<path d="M581.802 80.0926C564.471 80.5576 550.79 95.7817 540.666 115.271C524.158 158.188 517.864 194.253 535.035 231.547C550.456 260.657 646.335 355.084 594.706 391.223C588.292 405.411 581.994 415.148 573.287 430.014C569.73 441.827 556.234 454.542 546.58 468.206C539.37 481.304 561.385 498.312 564.374 509.064C567.85 520.649 560.434 519.058 547.351 521.484C516.833 528.6 475.015 529.345 455.516 559.518C428.617 597.822 434.787 631.622 457.784 670.825C475.382 700.071 506.979 760.91 475.95 791.253C461.641 804.376 433.177 805.392 414.866 805.538C392.753 805.317 370.914 801.536 348.746 801.822C328.235 802.089 322.76 805.725 312.372 819.542C303.242 828.955 291.886 832.221 277.675 836.723C264.175 839.864 251.376 845.375 246.506 860.128C243.164 871.809 250.415 886.271 254.786 895.507C261.908 906.049 268.972 914.154 274.431 926.334C279.236 935.88 297.96 972.602 290.575 983.099C273.33 1000.52 249.02 995.578 227.344 1002.23C218.999 1014.34 181.605 1010.21 173.948 1022.86C166.692 1037.97 172.321 1059.58 176.118 1074.86C182.145 1095.33 189.722 1124.69 180.276 1141.03C173.628 1152.2 178.315 1155.25 179.572 1172.39" stroke="#E4DF86" stroke-width="3"/>
<path d="M599.268 83.3007C579.988 82.5229 564.869 98.3969 553.739 119.075C536.64 161.358 529.712 198.205 545.038 234.953C558.946 263.197 646.74 352.946 599.716 387.396C594.725 402.11 590.042 412.349 582.506 427.938C579.703 440.622 567.143 454.242 556.876 468.236C549.78 480.733 569.587 496.844 571.824 507.083C574.509 518.093 567.153 516.868 554.562 519.342C524.531 526.814 484.246 528.454 464.559 557.607C436.827 595.259 439.947 629.184 463.276 669.044C481.923 700.135 517.001 763.621 484.033 796.243C469.234 810.037 440.307 811.414 421.173 811.538C400.011 811.279 379.107 807.745 357.887 807.952C338.198 808.147 332.376 811.487 321.993 824.174C312.618 832.793 301.207 835.581 287.159 839.836C272.81 842.99 260.654 848.89 255.376 864.232C251.878 875.896 257.685 890.239 261.616 899.764C268.099 910.272 275.2 918.114 280.596 929.903C285.517 939.419 303.198 974.167 296.676 984.674C281.03 1001.54 258.747 997.794 238.489 1004.76C230.151 1018.23 191.816 1012.69 183.153 1025.24C174.93 1040.01 179.166 1062.45 182.138 1078.06C187.046 1098.79 194.155 1126.78 186.53 1143.21C181.127 1154.43 186.029 1158.27 187.819 1175.08" stroke="#E0DE85" stroke-width="3"/>
<path d="M616.879 86.5733C595.659 84.5393 579.097 101.054 566.952 122.914C549.268 164.559 541.698 202.183 555.185 238.375C567.584 265.742 647.328 350.758 604.919 383.552C601.349 398.801 598.277 409.554 591.906 425.874C589.851 439.435 578.22 453.966 567.338 468.286C560.361 480.181 577.967 495.383 579.455 505.104C581.351 515.533 574.053 514.674 561.954 517.199C532.407 525.03 493.648 527.577 473.781 555.708C445.22 592.704 445.289 626.731 468.946 667.253C488.629 700.196 527.17 766.354 492.247 801.242C476.955 815.703 447.561 817.438 427.604 817.534C407.392 817.244 387.423 813.964 367.151 814.098C348.283 814.226 342.117 817.268 331.746 828.826C322.131 836.65 310.67 838.958 296.785 842.969C281.587 846.129 270.071 852.421 264.382 868.352C260.727 879.997 265.09 894.211 268.579 904.023C274.425 914.491 281.564 922.071 286.901 933.47C291.938 942.957 308.59 975.722 302.93 986.246C288.887 1002.57 268.623 1000.03 249.78 1007.32C241.44 1022.15 202.172 1015.2 192.503 1027.64C183.317 1042.06 186.153 1065.32 188.3 1081.25C192.086 1102.23 198.736 1128.86 192.931 1145.4C188.774 1156.66 193.885 1161.31 196.21 1177.79" stroke="#DDDD83" stroke-width="3"/>
<path d="M634.65 89.9149C611.499 86.6115 593.49 103.756 580.321 126.792C562.055 167.797 553.84 206.193 565.491 241.816C576.388 268.296 648.114 348.526 610.332 379.696C608.178 395.49 606.713 406.767 601.503 423.827C600.19 438.269 589.482 453.719 577.982 468.361C571.129 479.656 586.539 493.932 587.283 503.13C588.395 512.974 581.152 512.481 569.543 515.061C540.478 523.255 503.238 526.718 483.198 553.826C453.812 590.16 450.829 624.271 474.809 665.455C495.517 700.258 537.502 769.113 500.609 806.254C484.817 821.379 454.955 823.469 434.175 823.53C414.914 823.216 395.876 820.196 376.554 820.264C358.506 820.331 351.998 823.072 341.647 833.502C331.797 840.529 320.288 842.358 306.568 846.125C290.521 849.286 279.643 855.975 273.538 872.49C269.726 884.116 272.648 898.191 275.693 908.287C280.901 918.712 288.081 926.03 293.36 937.038C298.513 946.497 314.15 977.274 309.352 987.819C296.916 1003.61 278.662 1002.3 261.232 1009.91C252.881 1026.11 212.689 1017.74 202.015 1030.06C191.867 1044.13 193.299 1068.2 194.617 1084.44C197.281 1105.68 203.48 1130.94 199.495 1147.58C196.584 1158.91 201.898 1164.36 204.761 1180.51" stroke="#D9DD81" stroke-width="3"/>
<path d="M652.6 93.3308C627.526 88.7447 608.064 106.51 593.864 130.714C575.021 171.075 566.155 210.241 575.975 245.282C585.375 270.865 649.118 346.255 615.973 375.833C615.232 392.181 615.37 403.995 611.315 421.803C610.739 437.132 600.947 453.506 588.827 468.465C582.101 479.161 595.322 492.497 595.324 501.168C595.656 510.42 588.466 510.294 577.348 512.932C548.762 521.492 513.034 525.882 492.827 551.967C462.62 587.634 456.585 621.807 480.884 663.658C502.604 700.328 548.016 771.902 509.137 811.283C492.841 827.07 462.507 829.511 440.904 829.533C422.593 829.202 404.485 826.447 386.112 826.456C368.886 826.467 362.037 828.905 351.714 838.206C341.635 844.435 330.081 845.785 316.528 849.309C299.631 852.465 289.388 859.555 282.863 876.652C278.895 888.258 280.375 902.186 282.974 912.562C287.545 922.94 294.767 929.996 299.993 940.613C305.262 950.044 319.898 978.826 315.962 989.4C305.135 1004.67 288.883 1004.59 272.864 1012.55C264.491 1030.11 223.385 1020.31 211.707 1032.51C200.6 1046.23 200.621 1071.09 201.109 1087.64C202.648 1109.12 208.408 1133.01 206.241 1149.78C204.575 1161.18 210.087 1167.43 213.49 1183.26" stroke="#D6DC7F" stroke-width="3"/>
<path d="M670.746 96.8418C643.759 90.9599 622.84 109.337 607.6 134.702C588.185 174.415 578.662 214.346 586.654 248.794C594.565 273.471 650.358 343.967 621.861 371.983C622.528 388.897 624.266 401.258 621.362 419.821C621.515 436.042 612.633 453.348 599.891 468.621C593.296 478.719 604.335 491.099 603.6 499.237C603.156 507.893 596.016 508.135 585.388 510.833C557.277 519.764 523.055 525.09 502.687 550.152C471.665 585.147 462.577 619.361 487.191 661.88C509.91 700.425 558.73 774.745 517.85 816.352C501.044 832.796 470.237 835.585 447.811 835.563C430.45 835.22 413.27 832.738 395.845 832.694C379.441 832.655 372.254 834.787 361.966 842.961C351.663 848.39 340.068 849.26 326.683 852.542C308.936 855.688 299.326 863.184 292.376 880.86C288.252 892.444 288.292 906.214 290.443 916.869C294.377 927.195 301.644 933.99 306.817 944.215C312.204 953.62 325.852 980.401 322.778 991.008C313.564 1005.77 299.305 1006.94 284.694 1015.24C276.29 1034.18 234.279 1022.94 221.598 1035.01C209.534 1048.36 208.139 1074.01 207.795 1090.86C208.207 1112.58 213.536 1135.1 213.188 1152.01C212.765 1163.49 218.47 1170.54 222.416 1186.05" stroke="#D2DB7D" stroke-width="3"/>
<path d="M689.11 100.479C660.216 93.2877 637.837 112.266 621.549 138.786C601.565 177.847 591.38 218.54 597.549 252.382C603.976 276.142 651.854 341.691 628.015 368.18C630.087 385.668 633.421 398.587 631.662 417.914C632.539 435.033 624.56 453.275 611.193 468.858C604.734 478.359 613.597 489.77 612.128 497.37C610.913 505.424 603.82 506.033 593.681 508.796C566.043 518.1 533.32 524.374 512.799 548.411C480.964 582.728 468.824 616.964 493.748 660.155C517.454 700.581 569.664 777.67 526.766 821.49C509.447 838.589 478.163 841.723 454.914 841.65C438.503 841.302 422.249 839.099 405.773 839.008C390.191 838.926 382.667 840.75 372.422 847.796C361.901 852.423 350.268 852.814 337.052 855.855C318.455 858.984 309.474 866.891 302.097 885.144C297.816 896.706 296.417 910.308 298.118 921.238C301.416 931.508 308.729 938.042 313.854 947.875C319.357 957.255 332.031 982.028 329.819 992.676C322.222 1006.94 309.947 1009.37 296.741 1018.04C288.298 1038.34 245.391 1025.66 231.707 1037.58C218.689 1050.57 215.872 1077 214.694 1094.15C213.978 1116.09 218.886 1137.23 220.354 1154.3C221.175 1165.87 227.067 1173.73 231.557 1188.92" stroke="#CFDA7C" stroke-width="3"/>
<path d="M707.72 104.243C676.93 95.7298 653.085 115.299 635.741 142.967C615.192 181.374 604.34 222.823 608.69 256.049C613.641 278.882 653.638 339.43 634.467 364.423C637.94 382.496 642.866 395.983 642.246 416.083C643.842 434.104 636.759 453.29 622.765 469.179C616.445 478.083 623.14 488.509 620.941 495.567C618.958 503.015 611.91 503.992 602.26 506.823C575.092 516.503 543.86 523.735 523.193 546.746C490.55 580.381 475.358 614.617 500.587 658.482C525.267 700.797 580.849 780.679 535.917 826.699C518.08 844.45 486.317 847.925 462.244 847.795C446.784 847.45 431.453 845.532 415.927 845.401C401.166 845.28 393.308 846.794 383.113 852.713C372.379 856.537 360.711 856.448 347.666 859.25C328.22 862.357 319.865 870.678 312.055 889.505C307.618 901.043 304.781 914.469 306.032 925.67C308.693 935.88 316.054 942.154 321.133 951.595C326.754 960.951 338.468 983.709 337.117 994.403C331.139 1008.18 320.84 1011.89 309.037 1020.92C300.544 1042.59 256.751 1028.47 242.065 1040.24C228.095 1052.86 223.852 1080.06 221.837 1097.5C219.992 1119.66 224.488 1139.42 227.771 1156.65C229.836 1168.32 235.909 1176.98 240.946 1191.87" stroke="#CCDA7A" stroke-width="3"/>
<path d="M726.617 108.14C693.938 98.2912 668.624 118.442 650.216 147.251C629.107 185 617.582 227.202 620.117 259.798C623.598 281.695 655.75 337.188 641.256 360.718C646.126 379.386 652.641 393.453 653.155 414.333C655.462 433.261 649.269 453.398 634.647 469.588C628.47 477.898 633.003 487.324 630.078 493.834C627.33 500.67 620.325 502.015 611.164 504.918C584.462 514.977 554.715 523.177 533.909 545.162C500.463 578.11 482.217 612.326 507.748 656.867C533.389 701.079 592.324 783.778 545.344 831.985C526.984 850.383 494.738 854.196 469.843 854.005C455.332 853.668 440.922 852.041 426.346 851.877C412.407 851.723 404.217 852.925 394.08 857.716C383.138 860.737 371.438 860.167 358.566 862.731C338.269 865.81 330.538 874.55 322.292 893.948C317.699 905.462 313.425 918.701 314.222 930.172C316.248 940.317 323.659 946.33 328.694 955.38C334.433 964.712 345.201 985.45 344.711 996.196C340.356 1009.5 332.024 1014.5 321.62 1023.91C313.068 1046.94 268.398 1031.37 252.712 1042.99C237.792 1055.22 232.117 1083.18 229.263 1100.91C226.288 1123.29 230.381 1141.67 235.479 1159.08C238.786 1170.84 245.036 1180.32 250.622 1194.9" stroke="#C8D978" stroke-width="3"/>
<path d="M745.865 112.181C711.307 100.984 684.519 121.707 665.039 151.65C643.374 188.737 631.171 231.688 631.896 263.642C633.912 284.593 658.254 334.979 648.449 357.078C654.711 376.35 662.81 391.009 664.453 412.676C667.466 432.517 662.156 453.611 646.903 470.098C640.873 477.813 643.252 486.226 639.603 492.184C636.097 498.403 629.131 500.116 620.457 503.093C594.22 513.536 565.95 522.714 545.011 543.672C510.766 575.927 489.467 610.103 515.296 655.324C541.885 701.439 604.155 786.978 555.11 837.358C536.222 856.4 503.491 860.549 477.774 860.29C464.213 859.968 450.722 858.639 437.095 858.448C423.978 858.266 415.458 859.153 405.386 862.819C394.242 865.034 382.513 863.983 369.815 866.311C348.668 869.356 341.557 878.519 332.872 898.486C328.122 909.975 322.413 923.017 322.755 934.753C324.146 944.83 331.609 950.584 336.604 959.241C342.46 968.55 352.297 987.262 352.666 998.066C349.938 1010.91 343.563 1017.21 334.557 1027.01C325.936 1051.4 280.399 1034.37 263.712 1045.84C247.846 1057.68 240.733 1086.39 237.039 1104.4C232.931 1126.98 236.632 1143.98 243.543 1161.58C248.092 1173.46 254.513 1183.74 260.649 1198.02" stroke="#C5D876" stroke-width="3"/>
<path d="M765.37 116.347C728.941 103.789 700.675 125.073 680.116 156.143C657.899 192.565 645.012 236.261 643.932 267.561C644.491 287.557 661.058 332.783 655.949 353.483C663.6 373.369 673.28 388.63 676.046 411.094C679.758 431.852 675.325 453.908 659.439 470.689C653.56 477.812 653.791 485.195 649.423 490.596C645.162 496.193 638.233 498.275 630.046 501.33C604.27 512.159 577.471 522.326 556.406 542.257C521.366 573.813 497.014 607.928 523.136 653.831C550.661 701.856 616.246 790.26 565.122 842.799C545.702 862.482 512.483 866.963 485.943 866.631C473.331 866.331 460.757 865.306 448.08 865.094C435.785 864.89 426.936 865.461 416.939 868C405.597 869.409 393.843 867.877 381.32 869.969C359.323 872.974 352.83 882.565 343.7 903.098C338.795 914.561 331.652 927.397 331.536 939.396C332.293 949.4 339.809 954.895 344.766 963.159C350.74 972.447 359.659 989.125 360.889 999.994C359.79 1012.38 355.364 1020 347.752 1030.2C339.053 1055.96 292.658 1037.46 274.972 1048.76C258.161 1060.21 249.606 1089.67 245.07 1107.95C239.828 1130.73 243.146 1146.34 251.869 1164.14C257.659 1176.14 264.244 1187.23 270.934 1201.21" stroke="#C1D774" stroke-width="3"/>
<path d="M785.021 120.614C746.731 106.681 716.982 128.518 695.335 160.708C672.571 196.462 658.996 240.898 656.114 271.533C655.222 290.562 664.05 330.576 663.648 349.91C672.684 370.42 683.94 386.294 687.824 409.562C692.229 431.243 688.666 454.268 672.144 471.338C666.42 477.869 664.511 484.209 659.428 489.047C654.415 494.017 647.521 496.468 639.821 499.605C614.503 510.823 589.167 521.989 567.983 540.892C532.153 571.745 504.748 605.779 531.158 652.366C559.606 702.308 628.488 793.601 575.268 848.285C555.312 868.606 521.603 873.416 494.24 873.004C482.578 872.732 470.918 872.017 459.191 871.791C447.718 871.572 438.543 871.823 428.626 873.238C417.093 873.838 405.316 871.825 392.97 873.683C370.124 876.642 364.244 886.666 354.666 907.761C349.605 919.197 341.029 931.818 340.456 944.076C340.578 954.003 348.15 959.239 353.072 967.111C359.164 976.378 367.179 991.017 369.269 1001.96C369.803 1013.9 367.315 1022.85 361.095 1033.46C352.309 1060.58 305.066 1040.61 286.381 1051.75C268.628 1062.79 258.625 1092.98 253.245 1111.53C246.868 1134.5 249.812 1148.72 260.346 1166.74C267.376 1178.87 274.121 1190.78 281.366 1204.46" stroke="#BED773" stroke-width="3"/>
<path d="M804.812 124.98C764.669 109.661 733.434 132.04 710.692 165.342C687.384 200.425 673.116 245.597 668.437 275.554C666.101 293.608 667.226 328.357 671.54 346.357C681.956 367.501 694.784 383.999 699.781 408.079C704.872 430.688 702.173 454.688 685.013 472.042C679.449 477.983 675.405 483.265 669.611 487.537C663.852 491.874 656.989 494.694 649.775 497.916C624.912 509.527 601.033 521.702 579.736 539.576C543.12 569.722 512.663 603.653 539.357 650.927C568.715 702.793 640.875 796.998 585.545 853.814C565.047 874.769 530.845 879.904 502.66 879.408C491.947 879.17 481.199 878.772 470.421 878.538C459.77 878.309 450.271 878.239 440.443 878.528C428.723 878.319 416.927 875.825 404.76 877.45C381.064 880.358 375.795 890.818 365.765 912.473C360.549 923.881 350.542 936.276 349.507 948.792C348.996 958.637 356.626 963.615 361.515 971.094C367.725 980.341 374.852 992.936 377.8 1003.95C379.969 1015.47 379.412 1025.76 374.58 1036.78C365.697 1065.27 317.615 1043.83 297.933 1054.78C279.241 1065.42 267.785 1096.33 261.559 1115.14C254.045 1138.29 256.625 1151.12 268.969 1169.37C277.238 1181.64 284.137 1194.36 291.94 1207.76" stroke="#BAD671" stroke-width="3"/>
</svg>
