<svg width="806" height="879" viewBox="0 0 806 879" fill="none" xmlns="http://www.w3.org/2000/svg">
<path d="M43.9865 311.241C68.2978 298.375 94.6356 280.983 125.716 303.291C162.796 329.905 189.047 363.903 195.937 410.061C200.837 442.887 217.969 489.989 249.427 503.356C287.499 519.535 325.482 522.928 363.645 534.336C402.683 546.006 462.137 565.321 480.679 618.141C491.454 648.836 471.763 668.866 469.109 695.175C465.074 735.18 501.244 761.389 529.711 776.861C540.238 782.582 549.171 778.284 558.923 782.825" stroke="#85A7D5" stroke-width="3" stroke-linecap="round"/>
<path d="M11.0847 222.262C46.9299 203.942 115.558 159.719 154.298 221.769C165.781 240.162 170.356 249.812 188.536 259.029C207.602 268.694 228.245 277.817 247.722 279.918C262.662 281.53 275.772 276.231 290.34 277.282C304.614 278.312 322.638 291.574 335.248 301.653C348.206 312.009 358.041 327.587 360.484 344.583C362.793 360.643 357.775 374.713 362.668 391.264C377.511 441.475 429.039 448.802 463.352 456.436C498.779 464.318 557.079 466.473 580.193 512.605C590.303 532.783 596.469 554.159 607.172 574.382C624.82 607.729 644.003 630.683 674.651 647.017C706.363 663.918 738.989 672.433 771.319 679.758C778.374 681.356 785.258 682.286 791.773 686.437" stroke="#F491D6" stroke-width="3" stroke-linecap="round"/>
<path d="M43.7516 309.482C57.4342 302.273 73.2209 292.681 88.3777 292.627C102.196 290.428 116.508 292.119 132.657 303.538C151.795 317.095 168.355 332.437 181.156 349.832C193.734 367.202 202.52 386.63 206.631 409.352C212.161 441.648 229.888 488.574 261.386 502.219C280.708 510.686 299.853 516.269 318.646 521.337C337.432 526.358 355.869 530.696 374.839 537.124C394.727 545.333 421.423 553.319 444.764 566.37C468.16 579.433 490.167 597.266 500.418 625.478C511.508 656.625 492.501 677.335 490.439 704.168C489.34 725.451 498.176 742.843 511.559 756.901C524.995 770.986 542.46 781.651 558.019 789.619C568.699 795.324 577.8 791.154 587.693 795.824" stroke="#8AA6D5" stroke-width="3"/>
<path d="M42.1304 305.104C56.9749 297.312 75.5065 285.922 91.9034 289.072C105.623 287.931 119.455 290.035 135.734 301.359C154.898 314.737 171.694 329.784 184.858 346.417C197.577 363.003 206.599 381.186 211.254 402.827C217.244 433.562 235.014 478.826 265.586 492.309C284.61 500.887 303.305 506.995 321.285 512.685C339.251 518.284 356.509 523.13 374.782 530.09C394.442 540.479 422.459 548.445 446.401 561.238C470.452 574.056 494.363 591.11 505.293 620.291C516.35 650.922 498.612 671.699 497.206 698.233C497.071 720.172 506.455 737.879 520.748 752.077C535.147 766.331 553.42 776.903 569.867 784.851C580.376 790.353 589.377 786.44 599.111 791.091" stroke="#90A5D5" stroke-width="3"/>
<path d="M40.5115 300.73C56.518 292.354 77.7944 279.166 95.4314 285.519C109.052 285.438 122.405 287.955 138.813 299.184C158.003 312.383 175.034 327.134 188.562 343.007C201.422 358.807 210.68 375.746 215.88 396.306C222.329 425.48 240.141 469.082 269.789 482.403C288.515 491.092 306.759 497.724 323.926 504.038C341.073 510.213 357.15 515.568 374.728 523.06C394.16 535.629 423.497 543.575 448.04 556.11C472.747 568.682 498.56 584.958 510.171 615.108C521.195 645.222 504.725 666.066 503.974 692.302C504.805 714.897 514.736 732.918 529.94 747.257C545.301 761.679 564.382 772.158 581.717 780.087C592.056 785.386 600.956 781.73 610.531 786.362" stroke="#95A4D5" stroke-width="3"/>
<path d="M38.8931 296.357C56.0616 287.399 80.0829 272.412 98.9599 281.969C112.482 282.946 125.355 285.877 141.893 297.01C161.108 310.031 178.376 324.485 192.267 339.598C205.267 354.613 214.761 370.308 220.507 389.786C227.414 417.399 245.269 459.339 273.992 472.498C292.42 481.298 310.215 488.455 326.568 495.392C342.895 502.144 357.792 508.007 374.674 516.032C393.878 530.78 424.535 538.706 449.679 550.984C475.042 563.31 502.759 578.808 515.049 609.927C526.04 639.524 510.839 660.435 510.743 686.372C512.54 709.624 523.018 727.959 539.132 742.439C555.455 757.029 575.344 767.414 593.567 775.324C603.736 780.421 612.536 777.021 621.952 781.634" stroke="#9AA3D5" stroke-width="3"/>
<path d="M37.2754 291.985C55.6058 282.444 82.3719 265.659 102.489 278.419C115.912 280.455 128.306 283.799 144.974 294.837C164.214 307.679 181.717 321.838 195.972 336.189C209.113 350.42 218.843 364.871 225.134 383.267C232.5 409.319 250.398 449.597 278.196 462.594C296.326 471.505 313.67 479.187 329.21 486.746C344.717 494.076 358.435 500.448 374.621 509.005C393.597 525.931 425.574 533.838 451.319 545.858C477.337 557.939 506.958 572.658 519.927 604.746C530.886 633.827 516.954 654.805 517.513 680.444C520.275 704.351 531.3 723.001 548.325 737.621C565.611 752.38 586.307 762.672 605.418 770.562C615.416 775.456 624.116 772.313 633.373 776.907" stroke="#A0A2D6" stroke-width="3"/>
<path d="M35.6578 287.614C55.1502 277.489 84.6612 258.906 106.018 274.87C119.343 277.965 131.257 281.722 148.054 292.665C167.32 305.328 185.059 319.191 199.677 332.781C212.96 346.227 222.926 359.434 229.762 376.749C237.586 401.239 255.527 439.856 282.4 452.691C300.231 461.713 317.126 469.919 331.853 478.102C346.54 486.009 359.078 492.889 374.568 501.978C393.316 521.084 426.613 528.971 452.96 540.733C479.633 552.568 511.157 566.509 524.807 599.566C535.732 628.13 523.068 649.175 524.283 674.515C528.01 699.079 539.583 718.044 557.518 732.804C575.766 747.731 597.271 757.93 617.27 765.8C627.097 770.492 635.696 767.605 644.795 772.18" stroke="#A5A1D6" stroke-width="3"/>
<path d="M34.0404 283.243C54.6947 272.535 86.9505 252.153 109.548 271.321C122.774 275.475 134.208 279.645 151.135 290.493C170.427 302.977 188.402 316.544 203.383 329.374C216.806 342.035 227.008 353.997 234.389 370.231C242.673 393.16 260.656 430.115 286.604 442.787C304.137 451.921 320.582 460.651 334.496 469.457C348.363 477.941 359.721 485.33 374.515 494.951C393.036 516.236 427.653 524.104 454.6 535.608C481.929 547.198 515.356 560.36 529.686 594.386C540.578 622.433 529.183 643.545 531.053 668.587C535.745 693.807 547.865 713.087 566.711 727.987C585.922 743.082 608.234 753.189 629.121 761.039C638.778 765.529 647.277 762.898 656.217 767.454" stroke="#AAA0D6" stroke-width="3"/>
<path d="M32.4231 278.872C54.2394 267.581 89.2401 245.401 113.077 267.772C126.205 272.985 137.16 277.568 154.216 288.321C173.533 300.627 191.744 313.897 207.089 325.967C220.653 337.843 231.091 348.561 239.017 363.713C247.759 385.081 265.785 420.374 290.809 432.884C308.044 442.129 324.038 451.384 337.139 460.813C350.186 469.874 360.364 477.771 374.463 487.925C392.755 511.389 428.692 519.237 456.24 530.483C484.225 541.828 519.555 554.211 534.565 589.206C545.424 616.737 535.298 637.916 537.823 662.659C543.481 688.535 556.148 708.129 575.904 723.17C596.077 738.434 619.198 748.447 640.972 756.278C650.459 760.565 658.857 758.191 667.639 762.727" stroke="#AF9FD6" stroke-width="3"/>
<path d="M30.806 274.501C53.7842 262.628 91.5297 238.649 116.607 264.224C129.636 270.495 140.111 275.492 157.297 286.15C176.64 298.276 195.087 311.251 210.795 322.56C224.5 333.651 235.173 343.125 243.644 357.196C252.846 377.002 270.914 410.634 295.013 422.982C311.95 432.337 327.495 442.117 339.782 452.169C352.009 461.807 361.008 470.213 374.41 480.899C392.474 506.542 429.732 514.37 457.881 525.359C486.522 536.458 523.755 548.063 539.444 584.026C550.271 611.041 541.414 632.287 544.594 656.732C551.217 683.263 564.431 703.173 585.097 718.354C606.233 733.786 630.162 743.706 652.824 751.517C662.14 755.602 670.438 753.485 679.061 758.002" stroke="#B59ED6" stroke-width="3"/>
<path d="M29.1895 270.132C53.3297 257.675 93.82 231.898 120.138 260.676C133.068 268.006 143.063 273.416 160.378 283.98C179.747 295.927 198.43 308.606 214.501 319.154C228.347 329.46 239.257 337.69 248.273 350.679C257.933 368.925 276.044 400.894 299.218 413.08C315.857 422.547 330.951 432.851 342.426 443.526C353.833 453.742 361.652 462.656 374.359 473.874C392.195 501.696 430.772 509.504 459.522 520.236C488.818 531.089 527.955 541.915 544.324 578.848C555.118 605.346 547.529 626.659 551.365 650.806C558.953 677.993 572.715 698.217 594.291 713.538C616.39 729.139 641.126 738.966 664.676 746.758C673.822 750.639 682.02 748.779 690.483 753.277" stroke="#BA9DD6" stroke-width="3"/>
<path d="M27.5739 265.764C52.876 252.724 96.1112 225.148 123.669 257.131C136.5 265.519 146.016 271.343 163.461 281.811C182.855 293.58 201.774 305.962 218.209 315.75C232.196 325.271 243.341 332.257 252.902 344.165C263.021 360.849 281.175 391.156 303.424 403.18C319.765 412.758 334.409 423.586 345.07 434.885C355.658 445.678 362.297 455.1 374.308 466.85C391.916 496.852 431.813 504.64 461.164 515.114C491.116 525.722 532.156 535.77 549.205 573.671C559.966 599.653 553.646 621.033 558.136 644.881C566.69 672.724 580.999 693.263 603.486 708.725C626.547 724.494 652.091 734.228 676.529 742C685.505 745.679 693.602 744.075 701.907 748.554" stroke="#BF9BD6" stroke-width="3"/>
<path d="M25.9581 261.396C52.4223 247.773 98.4023 218.399 127.2 253.585C139.933 263.033 148.969 269.269 166.543 279.642C185.963 291.232 205.118 303.319 221.916 312.345C236.044 321.082 247.425 326.823 257.531 337.65C268.11 352.773 286.306 381.419 307.63 393.281C323.673 402.97 337.867 414.322 347.715 426.244C357.483 437.614 362.941 447.545 374.257 459.827C391.637 492.008 432.854 499.777 462.806 509.992C493.414 520.355 536.357 529.624 554.086 568.495C564.814 593.96 559.763 615.407 564.908 638.956C574.427 667.455 589.283 688.309 612.681 703.911C636.705 719.849 663.057 729.49 688.382 737.242C697.187 740.719 705.184 739.372 713.33 743.831" stroke="#C59AD6" stroke-width="3"/>
<path d="M24.3425 257.028C51.9686 242.823 100.694 211.65 130.731 250.039C143.365 260.546 151.922 267.196 169.626 277.474C189.072 288.885 208.462 300.675 225.624 308.941C239.892 316.893 251.509 321.39 262.161 331.135C273.198 344.697 291.437 371.681 311.836 383.381C327.58 393.181 341.325 405.058 350.359 417.603C359.308 429.55 363.586 439.989 374.206 452.804C391.358 487.164 433.895 494.913 464.449 504.871C495.712 514.988 540.558 523.478 558.967 563.318C569.662 588.267 565.88 609.78 571.68 633.032C582.165 662.187 597.568 683.355 621.875 699.098C646.862 715.203 674.022 724.751 700.236 732.484C708.87 735.758 716.767 734.668 724.754 739.108" stroke="#CA99D6" stroke-width="3"/>
<path d="M22.7269 252.661C51.515 237.872 102.985 204.901 134.263 246.494C146.798 258.059 154.875 265.122 172.708 275.305C192.18 286.537 211.806 298.032 229.331 305.537C243.741 312.704 255.594 315.957 266.79 324.621C278.286 336.621 296.568 361.943 316.042 373.481C331.488 383.392 344.783 395.794 353.004 408.962C361.132 421.486 364.231 432.434 374.155 445.78C391.079 482.32 434.937 490.049 466.091 499.749C498.009 509.62 544.759 517.333 563.848 558.142C574.51 582.574 571.996 604.154 578.452 627.107C589.902 656.918 605.852 678.401 631.07 694.284C657.019 710.558 684.987 720.013 712.089 727.726C720.553 730.798 728.349 729.964 736.177 734.385" stroke="#CF98D6" stroke-width="3"/>
<path d="M21.1112 248.293C51.0612 232.921 105.276 198.151 137.794 242.948C150.23 255.572 157.828 263.048 175.791 273.136C195.288 284.19 215.15 295.389 233.039 302.133C247.589 308.515 259.678 310.524 271.419 318.106C283.374 328.545 301.698 352.205 320.248 363.581C335.396 373.604 348.24 386.529 355.648 400.321C362.957 413.422 364.876 424.878 374.104 438.757C390.8 477.475 435.978 485.185 467.733 494.628C500.307 504.253 548.96 511.187 568.729 552.965C579.358 576.88 578.113 598.528 585.224 621.182C597.639 651.649 614.137 673.447 640.265 689.471C667.177 705.913 695.952 715.275 723.942 722.968C732.235 725.837 739.931 725.26 747.601 729.662" stroke="#D497D6" stroke-width="3"/>
<path d="M19.4957 243.925C50.6077 227.97 107.567 191.402 141.325 239.402C153.663 253.085 160.781 260.975 178.873 270.968C198.396 281.842 218.494 292.745 236.746 298.729C251.437 304.326 263.762 305.09 276.049 311.591C288.462 320.469 306.829 342.468 324.454 353.681C339.304 363.815 351.698 377.265 358.293 391.68C364.782 405.358 365.521 417.323 374.053 431.734C390.521 472.631 437.019 480.321 469.375 489.506C502.605 498.886 553.161 505.041 573.61 547.788C584.206 571.187 584.23 592.902 591.996 615.257C605.376 646.381 622.421 668.493 649.46 684.657C677.334 701.268 706.918 710.537 735.795 718.211C743.918 720.877 751.514 720.556 759.024 724.939" stroke="#DA96D6" stroke-width="3"/>
<path d="M17.88 239.557C50.154 223.019 109.858 184.653 144.856 235.857C157.096 250.598 163.734 258.901 181.956 268.799C201.504 279.495 221.838 290.102 240.453 295.325C255.286 300.137 267.846 299.657 280.678 305.077C293.551 312.393 311.96 332.73 328.66 343.781C343.212 354.026 355.156 368.001 360.938 383.038C366.607 397.294 366.166 409.767 374.002 424.711C390.242 467.787 438.06 475.457 471.017 484.385C504.903 493.519 557.362 498.896 578.491 542.612C589.054 565.494 590.346 587.276 598.767 609.333C613.114 641.112 630.706 663.539 658.655 679.843C687.492 696.622 717.883 705.798 747.648 713.453C755.601 715.916 763.096 715.852 770.448 720.216" stroke="#DF95D6" stroke-width="3"/>
<path d="M16.2644 235.19C49.7003 218.069 112.149 177.904 148.388 232.311C160.528 248.112 166.687 256.828 185.038 266.631C204.612 277.148 225.182 287.458 244.161 291.92C259.134 295.948 271.931 294.224 285.307 298.562C298.639 304.317 317.091 322.992 332.866 333.882C347.12 344.237 358.614 358.737 363.582 374.397C368.431 389.23 366.811 402.212 373.951 417.687C389.963 462.943 439.101 470.593 472.659 479.263C507.2 488.152 561.563 492.75 583.372 537.435C593.902 559.801 596.463 581.65 605.539 603.408C620.851 635.843 638.99 658.585 667.849 675.03C697.649 691.977 728.848 701.06 759.501 708.695C767.283 710.956 774.678 711.149 781.871 715.493" stroke="#E494D6" stroke-width="3"/>
<path d="M14.6487 230.822C49.2466 213.118 114.441 171.154 151.919 228.766C163.961 245.625 169.64 254.754 188.121 264.462C207.72 274.8 228.526 284.815 247.868 288.516C262.982 291.759 276.015 288.791 289.936 292.047C303.727 296.241 322.222 313.255 337.072 323.982C351.027 334.449 362.072 349.472 366.227 365.756C370.256 381.166 367.456 394.656 373.9 410.664C389.684 458.099 440.142 465.73 474.301 474.141C509.498 482.785 565.764 486.605 588.253 532.258C598.749 554.108 602.58 576.023 612.311 597.484C628.588 630.575 647.275 653.631 677.044 670.216C707.806 687.332 739.813 696.322 771.354 703.937C778.966 705.995 786.26 706.445 793.294 710.77" stroke="#EA93D6" stroke-width="3"/>
<path d="M13.0331 226.454C48.7929 208.167 116.732 164.405 155.45 225.22C167.393 243.138 172.593 252.681 191.203 262.293C210.829 272.453 231.87 282.171 251.576 285.112C266.831 287.57 280.099 283.357 294.566 285.533C308.815 288.165 327.353 303.517 341.278 314.082C354.935 324.66 365.529 340.208 368.871 357.115C372.081 373.102 368.1 387.101 373.849 403.641C389.405 453.255 441.183 460.866 475.944 469.02C511.796 477.418 569.965 480.459 593.133 527.082C603.597 548.415 608.696 570.397 619.083 591.559C636.325 625.306 655.559 648.677 686.239 665.403C717.964 682.687 750.779 691.584 783.208 699.179C790.649 701.035 797.843 701.741 804.718 706.047" stroke="#EF92D6" stroke-width="3"/>
</svg>
