<svg width="853" height="1066" viewBox="0 0 853 1066" fill="none" xmlns="http://www.w3.org/2000/svg">
<path d="M146.217 2.35045C146.217 22.2736 155.543 29.786 173.503 39.5584C207.873 58.2594 241.013 68.2123 267.488 98.8155C295.035 130.66 314.923 166.593 313.791 209.613C312.615 254.295 312.391 284.753 349.621 316C402.387 360.286 473.882 371.215 523.809 420.182C554.019 449.811 494.594 521.333 494.594 556.06C494.594 624.862 587.738 657.011 634.331 692.214C656.02 708.601 670.049 729.521 679.807 754.778C689.251 779.222 672.643 797.409 661.065 818.169C643.428 849.795 641.352 865.873 668.782 892.861C696.566 920.197 729.95 938.43 761.664 960.386C788.474 978.947 811.899 1000.25 827.536 1029.29C832.979 1039.4 836.231 1064.02 850.688 1064.02" stroke="#F491D6" stroke-width="3" stroke-linecap="round"/>
<path d="M2.34644 2.35045C2.34644 53.0047 9.86057 93.5257 58.0206 119.211C89.7524 136.135 128.792 138.149 158.895 158.348C225.86 203.281 216.363 276.489 200.238 345.215C188.895 393.554 175.094 425.201 220.633 458.217C244.02 475.172 272.471 483.606 298.356 495.7C349.806 519.738 391.744 547.634 388.207 609.529C384.995 665.727 317.55 746.115 359.818 796.671C399.897 844.609 480.97 853.418 531.526 888.175C570.135 914.719 584.879 978.795 587.476 1022.95C588.397 1038.62 585.289 1044.17 602.635 1044.17" stroke="#8AA6D5" stroke-width="3" stroke-linecap="round"/>
<path d="M9.19739 2.35045C9.19739 27.4202 11.4306 49.4864 19.8082 68.6876C28.9673 88.314 43.8011 104.551 67.9951 118.24C99.5277 135.874 137.655 139.503 166.271 160.789C229.991 205.711 220.936 276.882 207.351 343.824C204.463 368.951 201.881 388.516 205.043 408.068C207.267 426.699 211.993 445.5 233.679 462.876C255.952 482.3 287.483 491.864 314.355 505.058C364.387 528.732 404.996 556.296 402.092 616.446C401.013 644.371 383.399 677.757 371.439 710.595C359.19 743.949 353.097 775.892 374.531 801.252C414.024 848.208 492.827 857.466 542.485 891.614C580.532 917.777 595.689 979.817 598.907 1023.25C600.044 1038.65 597.238 1045.12 614.447 1045.12" stroke="#90A5D5" stroke-width="3"/>
<path d="M16.0485 2.35045C16.0485 27.1629 18.6363 48.5013 27.493 67.2311C37.9126 86.8113 53.6618 102.734 77.9698 117.269C109.303 135.613 146.519 140.858 173.647 163.231C234.123 208.14 225.509 277.276 214.465 342.432C214.359 368.518 215.481 387.651 220.982 408.673C224.604 427.854 226.124 449.292 246.725 467.535C267.884 489.428 302.496 500.121 330.354 514.416C378.969 537.725 418.249 564.957 415.978 623.362C415.425 651.113 397.861 683.74 385.92 715.973C373.402 749.242 367.51 780.391 389.244 805.832C428.151 851.808 504.683 861.515 553.444 895.053C590.929 920.836 606.5 980.839 610.339 1023.55C611.691 1038.69 609.188 1046.06 626.259 1046.06" stroke="#95A4D5" stroke-width="3"/>
<path d="M22.8994 2.35045C22.8994 26.9056 25.8418 47.5163 35.1777 65.7747C46.8578 85.3086 63.5224 100.917 87.9444 116.297C119.079 135.352 155.382 142.212 181.023 165.672C238.254 210.569 230.082 277.669 221.578 341.041C224.255 368.085 229.081 386.786 236.92 409.279C241.942 429.01 240.254 453.084 259.77 472.194C279.816 496.556 317.509 508.378 346.353 523.774C393.55 546.719 431.501 573.618 429.864 630.279C429.837 657.856 412.323 689.723 400.402 721.352C387.614 754.534 381.922 784.89 403.956 810.413C442.278 855.407 516.539 865.563 564.403 898.491C601.326 923.894 617.31 981.86 621.77 1023.86C623.338 1038.73 621.138 1047.01 638.071 1047.01" stroke="#9AA3D5" stroke-width="3"/>
<path d="M29.7504 2.35045C29.7504 26.6482 33.0474 46.5313 42.8624 64.3182C55.8031 83.8058 73.383 99.1005 97.919 115.326C128.854 135.092 164.245 143.567 188.399 168.113C242.385 212.998 234.654 278.063 228.692 339.65C234.151 367.651 242.681 385.921 252.858 409.885C259.28 430.166 254.384 456.875 272.816 476.854C291.748 503.685 332.522 516.636 362.351 533.131C408.132 555.712 444.754 582.279 443.75 637.196C444.249 664.598 426.786 695.705 414.883 726.731C401.826 759.826 396.335 789.389 418.669 814.993C456.405 859.006 528.395 869.611 575.362 901.93C611.723 926.953 628.12 982.882 633.202 1024.16C634.984 1038.76 633.087 1047.95 649.883 1047.95" stroke="#9FA2D6" stroke-width="3"/>
<path d="M36.6014 2.35045C36.6014 26.3909 40.2531 45.5463 50.5473 62.8618C64.7484 82.3031 83.2437 97.2836 107.894 114.355C138.629 134.831 173.109 144.921 195.775 170.554C246.516 215.427 239.227 278.456 235.805 338.259C244.048 367.218 256.281 385.056 268.796 410.491C276.617 431.321 268.514 460.667 285.862 481.513C303.68 510.813 347.534 524.893 378.35 542.489C422.714 564.706 458.007 590.941 457.635 644.112C458.661 671.341 441.248 701.688 429.364 732.11C416.038 765.119 410.748 793.888 433.381 819.574C470.533 862.606 540.251 873.659 586.321 905.369C622.121 930.011 638.931 983.903 644.633 1024.46C646.631 1038.8 645.037 1048.9 661.695 1048.9" stroke="#A4A1D6" stroke-width="3"/>
<path d="M43.4524 2.35045C43.4524 26.1336 47.4587 44.5613 58.232 61.4053C73.6936 80.8004 93.1042 95.4666 117.868 113.384C148.405 134.57 181.972 146.276 203.151 172.995C250.647 217.857 243.8 278.85 242.919 336.868C253.944 366.785 269.881 384.191 284.735 411.096C293.955 432.477 282.644 464.459 298.908 486.172C315.612 517.941 362.547 533.15 394.349 551.847C437.295 573.699 471.259 599.602 471.521 651.029C473.073 678.084 455.71 707.67 443.845 737.488C430.25 770.411 425.161 798.387 448.094 824.154C484.66 866.205 552.107 877.707 597.28 908.807C632.518 933.07 649.741 984.925 656.065 1024.76C658.278 1038.84 656.987 1049.84 673.507 1049.84" stroke="#A9A0D6" stroke-width="3"/>
<path d="M50.3033 2.35045C50.3033 25.8762 54.6643 43.5763 65.9167 59.9488C82.6388 79.2976 102.965 93.6496 127.843 112.413C158.18 134.31 190.836 147.63 210.527 175.436C254.778 220.286 248.372 279.243 250.032 335.477C263.84 366.352 283.481 383.326 300.673 411.702C311.292 433.632 296.774 468.25 311.953 490.831C327.545 525.069 377.56 541.408 410.348 561.205C451.877 582.692 484.512 608.263 485.407 657.945C487.484 684.826 470.172 713.653 458.327 742.867C444.461 775.703 439.573 802.887 462.806 828.735C498.787 869.805 563.964 881.756 608.239 912.246C642.915 936.128 660.552 985.946 667.496 1025.06C669.924 1038.88 668.936 1050.79 685.319 1050.79" stroke="#AE9FD6" stroke-width="3"/>
<path d="M57.1543 2.35045C57.1543 25.6189 61.8699 42.5912 73.6014 58.4924C91.5841 77.7949 112.825 91.8327 137.817 111.441C167.955 134.049 199.699 148.985 217.903 177.878C258.91 222.715 252.945 279.637 257.145 334.085C273.736 365.918 297.081 382.461 316.611 412.308C328.63 434.788 310.904 472.042 324.999 495.49C339.477 532.197 392.573 549.665 426.346 570.563C466.459 591.686 497.764 616.924 499.292 664.862C501.896 691.569 484.634 719.635 472.808 748.246C458.673 780.995 453.986 807.386 477.519 833.315C512.914 873.404 575.82 885.804 619.198 915.684C653.312 939.187 671.362 986.968 678.927 1025.37C681.571 1038.91 680.886 1051.73 697.131 1051.73" stroke="#B39ED6" stroke-width="3"/>
<path d="M64.0054 2.35045C64.0054 25.3616 69.0756 41.6062 81.2862 57.0359C100.529 76.2922 122.686 90.0157 147.792 110.47C177.731 133.788 208.562 150.339 225.279 180.319C263.041 225.144 257.518 280.031 264.259 332.694C283.633 365.485 310.681 381.596 332.55 412.913C345.968 435.944 325.034 475.833 338.045 500.15C351.409 539.325 407.585 557.922 442.345 579.92C481.04 600.679 511.017 625.586 513.178 671.779C516.308 698.311 499.097 725.618 487.289 753.625C472.885 786.288 468.399 811.885 492.232 837.895C527.041 877.004 587.676 889.852 630.157 919.123C663.709 942.245 682.173 987.99 690.359 1025.67C693.218 1038.95 692.836 1052.68 708.943 1052.68" stroke="#B89DD6" stroke-width="3"/>
<path d="M70.8564 2.35045C70.8564 25.1042 76.2813 40.6212 88.971 55.5795C109.475 74.7895 132.547 88.1988 157.767 109.499C187.506 133.527 217.426 151.694 232.655 182.76C267.172 227.574 262.091 280.424 271.373 331.303C293.529 365.052 324.282 380.731 348.488 413.519C363.305 437.099 339.164 479.625 351.091 504.809C363.341 546.453 422.598 566.18 458.344 589.278C495.622 609.673 524.27 634.247 527.064 678.695C530.72 705.054 513.559 731.601 501.771 759.003C487.097 791.58 482.812 816.384 506.944 842.476C541.168 880.603 599.532 893.9 641.116 922.562C674.106 945.304 692.983 989.011 701.791 1025.97C704.865 1038.99 704.785 1053.62 720.755 1053.62" stroke="#BD9CD6" stroke-width="3"/>
<path d="M77.7073 2.35045C77.7073 24.8469 83.4868 39.6362 96.6556 54.123C118.42 73.2867 142.407 86.3818 167.741 108.528C197.281 133.267 226.289 153.048 240.031 185.201C271.303 230.003 266.663 280.818 278.486 329.912C303.425 364.619 337.882 379.866 364.426 414.125C380.643 438.255 353.294 483.417 364.136 509.468C375.273 553.581 437.611 574.437 474.343 598.636C510.203 618.666 537.522 642.908 540.95 685.612C545.132 711.796 528.021 737.583 516.252 764.382C501.309 796.872 497.225 820.883 521.657 847.056C555.295 884.202 611.388 897.948 652.075 926C684.503 948.362 703.794 990.033 713.222 1026.27C716.511 1039.02 716.735 1054.57 732.567 1054.57" stroke="#C29BD6" stroke-width="3"/>
<path d="M84.5583 2.35045C84.5583 24.5896 90.6925 38.6512 104.34 52.6665C127.365 71.784 152.268 84.5649 177.716 107.556C207.057 133.006 235.152 154.403 247.407 187.642C275.434 232.432 271.236 281.211 285.599 328.521C313.321 364.185 351.482 379.001 380.364 414.731C397.981 439.411 367.424 487.208 377.182 514.127C387.205 560.709 452.624 582.694 490.342 607.994C524.785 627.66 550.775 651.569 554.835 692.528C559.544 718.539 542.483 743.566 530.733 769.761C515.521 802.165 511.637 825.382 536.369 851.637C569.422 887.802 623.244 901.996 663.034 929.439C694.9 951.421 714.604 991.054 724.653 1026.57C728.158 1039.06 728.685 1055.51 744.379 1055.51" stroke="#C79AD6" stroke-width="3"/>
<path d="M91.4094 2.35045C91.4094 24.3322 97.8982 37.6662 112.025 51.2101C136.311 70.2813 162.129 82.7479 187.691 106.585C216.832 132.745 244.016 155.757 254.783 190.083C279.566 234.861 275.809 281.605 292.713 327.129C323.218 363.752 365.082 378.136 396.303 415.336C415.318 440.566 381.554 491 390.228 518.786C399.137 567.837 467.636 590.952 506.34 617.351C539.367 636.653 564.028 660.231 568.721 699.445C573.956 725.281 556.946 749.548 545.215 775.14C529.733 807.457 526.05 829.881 551.082 856.217C583.549 891.401 635.101 906.045 673.993 932.877C705.297 954.479 725.415 992.076 736.085 1026.88C739.805 1039.1 740.634 1056.46 756.192 1056.46" stroke="#CC99D6" stroke-width="3"/>
<path d="M98.2603 2.35045C98.2603 24.0749 105.104 36.6812 119.71 49.7536C145.256 68.7785 171.989 80.931 197.665 105.614C226.608 132.485 252.879 157.112 262.159 192.524C283.697 237.291 280.381 281.998 299.826 325.738C333.114 363.319 378.682 377.271 412.241 415.942C432.656 441.722 395.684 494.792 403.274 523.446C411.069 574.965 482.649 599.209 522.339 626.709C553.948 645.647 577.28 668.892 582.607 706.362C588.368 732.024 571.408 755.531 559.696 780.518C543.944 812.749 540.463 834.38 565.794 860.798C597.676 895.001 646.957 910.093 684.952 936.316C715.694 957.538 736.225 993.097 747.516 1027.18C751.451 1039.14 752.584 1057.4 768.003 1057.4" stroke="#D198D6" stroke-width="3"/>
<path d="M105.111 2.35045C105.111 23.8176 112.309 35.6961 127.395 48.2972C154.201 67.2758 181.85 79.114 207.64 104.643C236.383 132.224 261.743 158.466 269.535 194.966C287.828 239.72 284.954 282.392 306.94 324.347C343.01 362.886 392.282 376.406 428.179 416.548C449.993 442.877 409.814 498.583 416.319 528.105C423.001 582.093 497.662 607.466 538.338 636.067C568.53 654.64 590.533 677.553 596.493 713.278C602.78 738.767 585.87 761.514 574.177 785.897C558.156 818.041 554.876 838.879 580.507 865.378C611.804 898.6 658.813 914.141 695.911 939.755C726.092 960.596 747.036 994.119 758.948 1027.48C763.098 1039.17 764.534 1058.35 779.816 1058.35" stroke="#D697D6" stroke-width="3"/>
<path d="M111.962 2.35045C111.962 23.5602 119.515 34.7111 135.079 46.8407C163.146 65.7731 191.71 77.297 217.615 103.672C246.158 131.963 270.606 159.821 276.911 197.407C291.959 242.149 289.527 282.785 314.053 322.956C352.906 362.452 405.882 375.541 444.118 417.153C467.331 444.033 423.944 502.375 429.365 532.764C434.934 589.221 512.675 615.724 554.337 645.425C583.112 663.634 603.786 686.215 610.378 720.195C617.192 745.509 600.332 767.496 588.659 791.276C572.368 823.334 569.289 843.378 595.22 869.959C625.931 902.199 670.669 918.189 706.87 943.193C736.489 963.655 757.846 995.141 770.379 1027.78C774.745 1039.21 776.483 1059.29 791.628 1059.29" stroke="#DB96D6" stroke-width="3"/>
<path d="M118.813 2.35045C118.813 23.3029 126.721 33.7261 142.764 45.3842C172.091 64.2704 201.571 75.4801 227.589 102.7C255.934 131.702 279.469 161.175 284.287 199.848C296.09 244.578 294.1 283.179 321.167 321.565C362.802 362.019 419.482 374.676 460.056 417.759C484.669 445.189 438.074 506.167 442.411 537.423C446.866 596.35 527.687 623.981 570.335 654.782C597.693 672.627 617.038 694.876 624.264 727.112C631.603 752.252 614.794 773.479 603.14 796.654C586.58 828.626 583.701 847.877 609.932 874.539C640.058 905.799 682.525 922.237 717.828 946.632C746.886 966.713 768.657 996.162 781.81 1028.08C786.392 1039.25 788.433 1060.24 803.44 1060.24" stroke="#E095D6" stroke-width="3"/>
<path d="M125.664 2.35045C125.664 23.0456 133.926 32.7411 150.449 43.9278C181.037 62.7676 211.432 73.6631 237.564 101.729C265.709 131.442 288.333 162.529 291.663 202.289C300.221 247.007 298.672 283.572 328.28 320.173C372.699 361.586 433.082 373.811 475.994 418.365C502.006 446.344 452.204 509.958 455.457 542.082C458.798 603.478 542.7 632.239 586.334 664.14C612.275 681.621 630.291 703.537 638.15 734.028C646.015 758.994 629.256 779.461 617.621 802.033C600.792 833.918 598.114 852.376 624.645 879.12C654.185 909.398 694.381 926.286 728.788 950.071C757.283 969.772 779.467 997.184 793.242 1028.38C798.038 1039.29 800.382 1061.18 815.252 1061.18" stroke="#E594D6" stroke-width="3"/>
<path d="M132.515 2.35045C132.515 22.7882 141.132 31.7561 158.134 42.4713C189.982 61.2649 221.292 71.8462 247.538 100.758C275.485 131.181 297.196 163.884 299.039 204.73C304.353 249.437 303.245 283.966 335.394 318.782C382.595 361.153 446.682 372.946 491.933 418.971C519.344 447.5 466.334 513.75 468.503 546.742C470.73 610.606 557.713 640.496 602.333 673.498C626.857 690.614 643.543 712.198 652.036 740.945C660.427 765.737 643.719 785.444 632.103 807.412C615.004 839.211 612.527 856.875 639.357 883.7C668.312 912.998 706.237 930.334 739.747 953.509C767.68 972.83 790.278 998.205 804.674 1028.69C809.685 1039.32 812.332 1062.13 827.064 1062.13" stroke="#EA93D6" stroke-width="3"/>
<path d="M139.366 2.35045C139.366 22.5309 148.337 30.7711 165.818 41.0149C198.927 59.7622 231.153 70.0292 257.513 99.7867C285.26 130.92 306.06 165.238 306.415 207.171C308.484 251.866 307.818 284.359 342.507 317.391C392.491 360.719 460.282 372.081 507.871 419.576C536.681 448.656 480.464 517.541 481.548 551.401C482.662 617.734 572.726 648.753 618.332 682.856C641.438 699.608 656.796 720.86 665.921 747.861C674.839 772.479 658.181 791.426 646.584 812.791C629.216 844.503 626.939 861.374 654.07 888.28C682.439 916.597 718.093 934.382 750.705 956.948C778.077 975.889 801.088 999.227 816.105 1028.99C821.332 1039.36 824.282 1063.07 838.876 1063.07" stroke="#EF92D6" stroke-width="3"/>
</svg>
