<svg viewBox="0 0 898 891" fill="none" xmlns="http://www.w3.org/2000/svg">
<path d="M803.941 10.0305C798.709 24.5621 783.593 33.7722 773.096 44.2698C757.892 59.4737 762.615 75.0739 768.226 93.8577C772.91 109.539 777.12 122.057 767.783 136.952C750.974 163.765 718.906 174.421 689.711 181.522C658.003 189.235 626.917 189.254 594.668 191.115C575.246 192.235 554.982 196.127 538.881 207.792C509.639 228.978 528.319 265.037 526.78 294.275C524.004 347.009 465.983 377.629 419.93 384.006C358.931 392.452 293.385 376.91 233.532 392.271C188.199 403.905 118.734 436.364 115.171 489.823C113.935 508.352 121.962 530.171 111.776 547.233C97.9781 570.345 73.1877 572.903 49.4961 575.864" stroke="#B7D44E" stroke-width="3" stroke-linecap="round"/>
<path d="M865.04 2.06103C887.135 17.2988 907.642 55.7354 889.244 81.7559C879.484 95.5586 843.515 98.9445 829.177 103.451C807.205 110.356 763.624 116.291 749.04 136.952C740.793 148.634 757.841 167.135 764.831 174.881C772.253 183.105 773.692 179.623 782.393 182.408C815.176 192.898 846.896 235.886 855.3 268.301C864.741 304.718 834.019 336.454 802.17 345.339C765.067 355.69 726.694 360.953 691.04 376.184C682.7 379.747 664.807 385.643 666.393 397.879C669.095 418.72 685.263 440.947 676.724 462.815C670.005 480.022 650.296 489.342 632.744 489.823C609.755 490.453 592.794 474.784 575.777 461.635C558.953 448.634 540.093 432.03 519.548 425.182C498.505 418.167 470.687 420.944 449.151 422.968C407.081 426.922 319.892 455.634 351.451 512.698C362.913 533.425 384.923 561.271 369.161 586.49C361.481 598.778 346.47 601.892 333.593 605.528C302.752 614.236 272.405 626.571 261.13 659.691C252.293 685.649 252.224 722.943 257.145 750.012C259.355 762.163 266.036 773.221 266.738 785.727C267.888 806.194 246.214 809.574 230.138 811.702C185.301 817.636 140.087 816.349 95.2468 823.508C72.8948 827.077 44.7382 828.7 23.5215 837.676C16.585 840.611 12.3523 847.858 9.64866 854.501C5.3117 865.157 -3.53383 881.436 6.99217 889.33" stroke="#FFE595" stroke-width="3" stroke-linecap="round"/>
<path d="M806.614 9.65102C806.005 14.9898 804.275 20.8702 800.158 25.8294C796.452 30.2067 790.964 33.758 786.482 37.2658C781.638 40.8879 775.741 44.3668 771.714 48.6832C764.081 56.4795 762.398 64.6948 762.713 72.8241C763.049 80.9763 765.578 88.9971 768.664 98.0743C772.456 106.041 776.084 114.802 776.933 122.966C777.831 131.321 775.147 139.359 769.184 146.875C759.413 160.136 745.949 169.308 731.139 176.608C717.63 183.352 702.192 187.86 688.365 191.825C673.394 196.49 659.213 199.389 643.791 201.575C628.456 203.539 612.438 204.43 596.245 205.339C585.902 205.903 575.645 206.35 565.781 208.172C555.926 210.002 546.37 212.915 537.725 218.144C522.798 227.898 518.958 241.66 518.715 256.345C517.495 271.122 517.425 288.036 518.195 304.677C517.419 330.775 503.991 351.947 483.613 367.475C463.62 382.388 438.125 391.345 415.582 394.555C385.067 398.991 353.492 397.889 322.962 398.6C292.548 398.97 262.688 400.702 234.42 409.306C212.938 415.425 185.924 426.45 163.597 442.523C141.291 458.975 122.872 479.593 120.409 505.151C117.686 514.256 117.15 523.802 115.566 533.575C115.053 543.177 113.198 552.511 107.337 561.063C100.437 572.209 91.0473 578.666 80.5531 582.695C69.981 586.915 58.0165 589.005 47.236 590.791" stroke="#BBD551" stroke-width="3"/>
<path d="M809.287 9.27152C809.814 15.1053 809.196 22.6135 804.364 28.6257C800.356 33.4743 793.343 37.0174 788.369 40.5751C782.668 44.3613 774.887 47.963 770.333 53.0967C762.669 61.0872 761.922 69.8168 762.571 77.927C763.261 86.0827 765.736 93.5284 769.103 102.291C774.344 110.384 779.377 120.856 780.603 130.233C781.928 139.991 777.843 149.214 770.586 156.798C759.448 169.914 744.738 178.89 728.886 186.587C715.636 193.172 700.074 197.75 687.018 202.127C672.931 207.601 660.268 211.467 645.19 214.637C630.285 217.363 614.083 218.676 597.822 219.563C586.847 220.13 576.255 219.772 566.033 220.846C555.83 221.934 545.808 223.871 536.568 228.496C521.335 237.412 516.296 250.625 514.989 264.676C511.727 278.912 507.3 296.416 509.61 315.078C509.446 340.907 497.79 362.413 477.643 378.426C458.265 393.208 433.295 401.872 411.235 405.103C380.703 409.753 349.19 409.323 319.622 411.654C290.287 413.304 261.916 416.814 235.309 426.341C215.011 432.762 189.681 443.788 168.506 459.683C147.373 476.336 128.791 496.092 125.648 520.478C120.819 529.425 118.049 538.429 114.302 548.071C112.697 557.372 109.527 566.321 102.899 574.894C95.9961 585.629 86.8647 592.125 76.7599 596.285C66.4996 600.828 54.691 603.626 44.9759 605.718" stroke="#BED655" stroke-width="3"/>
<path d="M811.961 8.89202C813.623 15.2207 814.116 24.3567 808.571 31.422C804.259 36.7419 795.723 40.2767 790.256 43.8843C783.699 47.8347 774.034 51.5592 768.951 57.5101C761.257 65.695 761.446 74.9388 762.429 83.0298C763.474 91.1891 765.894 98.0597 769.541 106.508C776.232 114.727 782.669 126.911 784.273 137.5C786.026 148.661 780.538 159.069 771.987 166.722C759.483 179.692 743.527 188.473 726.633 196.565C713.641 202.991 697.957 207.639 685.672 212.43C672.468 218.713 661.322 223.545 646.589 227.699C632.115 231.187 615.728 232.921 599.399 233.787C587.791 234.358 576.864 233.193 566.285 233.519C555.733 233.865 545.246 234.827 535.411 238.847C519.872 246.925 513.635 259.589 511.263 273.008C505.958 286.702 497.176 304.796 501.024 325.479C501.472 351.04 491.589 372.879 471.672 389.377C452.91 404.027 428.464 412.4 406.888 415.652C376.34 420.516 344.888 420.757 316.283 424.709C288.027 427.638 261.145 432.926 236.197 443.377C217.084 450.098 193.439 461.127 173.415 476.843C153.455 493.697 134.71 512.591 130.886 535.806C123.952 544.594 118.948 553.056 113.038 562.568C110.342 571.567 105.856 580.13 98.46 588.725C91.5557 599.049 82.682 605.585 72.9668 609.876C63.0183 614.74 51.3656 618.248 42.7158 620.645" stroke="#C2D758" stroke-width="3"/>
<path d="M814.634 8.51252C817.431 15.3362 819.037 26.1 812.777 34.2184C808.163 40.0095 798.103 43.536 792.143 47.1935C784.729 51.3081 773.18 55.1554 767.569 61.9235C759.845 70.3027 760.971 80.0608 762.287 88.1326C763.686 96.2956 766.051 102.591 769.98 110.724C778.12 119.07 785.962 132.965 787.944 144.767C790.124 157.331 783.234 168.923 773.388 176.645C759.518 189.469 742.317 198.055 724.38 206.544C711.647 212.811 695.84 217.528 684.325 222.733C672.005 229.824 662.377 235.623 647.987 240.761C633.944 245.011 617.373 247.167 600.976 248.012C588.736 248.585 577.474 246.615 566.537 246.192C555.637 245.797 544.685 245.782 534.255 249.199C518.41 256.439 510.974 268.553 507.537 281.339C500.189 294.492 487.051 313.176 492.439 335.88C493.499 361.172 485.387 383.346 465.702 400.328C447.555 414.847 423.633 422.927 402.54 426.201C371.976 431.278 340.585 432.191 312.944 437.764C285.766 441.972 260.374 449.039 237.086 460.412C219.157 467.435 197.197 478.465 178.324 494.003C159.537 511.058 140.629 529.09 136.125 551.133C127.084 559.763 119.847 567.684 111.774 577.065C107.986 585.762 102.186 593.94 94.0214 602.555C87.1152 612.469 78.4994 619.044 69.1737 623.466C59.5369 628.652 48.0402 632.869 40.4557 635.572" stroke="#C5D75B" stroke-width="3"/>
<path d="M817.308 8.13302C821.24 15.4516 823.957 27.8433 816.983 37.0147C812.067 43.2771 800.482 46.7953 794.03 50.5028C785.76 54.7815 772.326 58.7516 766.188 66.337C758.432 74.9104 760.495 85.1828 762.145 93.2355C763.898 101.402 766.209 107.122 770.418 114.941C780.008 123.413 789.255 139.019 791.614 152.033C794.221 166.001 785.93 178.778 774.79 186.568C759.553 199.247 741.106 207.637 722.128 216.523C709.652 222.631 693.723 227.417 682.979 233.036C671.543 240.936 663.431 247.701 649.386 253.823C635.774 258.835 619.018 261.413 602.553 262.236C589.681 262.813 578.083 260.037 566.789 258.865C555.54 257.728 544.123 256.738 533.098 259.551C516.947 265.952 508.312 277.517 503.811 289.67C494.421 302.282 476.927 321.556 483.854 346.281C485.526 371.305 479.186 393.812 459.731 411.278C442.2 425.666 418.803 433.455 398.193 436.749C367.612 442.04 336.283 443.625 309.604 450.818C283.505 456.305 259.603 465.151 237.974 477.447C221.23 484.772 200.954 495.804 183.234 511.164C165.619 528.419 146.549 545.589 141.363 566.461C130.217 574.932 120.746 582.311 110.511 591.561C105.63 599.957 98.5147 607.749 89.5827 616.386C82.6747 625.889 74.3167 632.504 65.3806 637.056C56.0556 642.564 44.7148 647.491 38.1956 650.499" stroke="#C9D85F" stroke-width="3"/>
<path d="M819.981 7.75352C825.048 15.5671 828.877 29.5865 821.19 39.811C815.971 46.5447 802.862 50.0546 795.917 53.812C786.79 58.255 771.472 62.3478 764.806 70.7504C757.02 79.5182 760.019 90.3048 762.003 98.3383C764.111 106.508 766.367 111.654 770.857 119.158C781.896 127.755 792.547 145.073 795.285 159.3C798.319 174.67 788.626 188.633 776.191 196.491C759.587 209.025 739.896 217.219 719.875 226.502C707.658 232.451 691.606 237.306 681.633 243.338C671.08 252.047 664.486 259.779 650.785 266.885C637.604 272.66 620.663 275.658 604.13 276.46C590.626 277.04 578.693 273.458 567.041 271.538C555.443 269.66 543.561 267.694 531.941 269.903C515.485 275.466 505.651 286.481 500.085 298.001C488.652 310.072 466.802 329.936 475.269 356.682C477.553 381.437 472.985 404.278 453.761 422.229C436.846 436.486 413.972 443.982 393.846 447.298C363.249 452.802 331.981 455.059 306.265 463.873C281.245 470.639 258.832 481.263 238.862 494.482C223.303 502.109 204.712 513.143 188.143 528.324C171.701 545.78 152.468 562.088 146.602 581.788C133.35 590.101 121.644 596.938 109.247 606.058C103.274 614.152 94.8438 621.558 85.144 630.217C78.2342 639.309 70.1341 645.964 61.5875 650.646C52.5742 656.476 41.3894 662.113 35.9356 665.426" stroke="#CCD962" stroke-width="3"/>
<path d="M822.654 7.37402C828.857 15.6825 833.798 31.3298 825.396 42.6073C819.874 49.8123 805.242 53.314 797.804 57.1212C787.821 61.7284 770.619 65.944 763.424 75.1638C755.608 84.1259 759.543 95.4268 761.861 103.441C764.323 111.615 766.525 116.185 771.296 123.374C783.785 132.098 795.84 151.127 798.955 166.567C802.416 183.34 791.321 198.488 777.592 206.414C759.622 218.802 738.685 226.802 717.622 236.481C705.663 242.27 689.489 247.195 680.286 253.641C670.617 263.159 665.541 271.857 652.184 279.947C639.433 286.484 622.308 289.904 605.707 290.684C591.57 291.268 579.302 286.88 567.293 284.211C555.347 281.592 542.999 278.65 530.784 280.255C514.022 284.979 502.989 295.445 496.359 306.332C482.884 317.862 456.678 338.315 466.684 367.083C469.58 391.57 466.783 414.744 447.79 433.18C431.491 447.305 409.141 454.509 389.498 457.847C358.885 463.565 327.679 466.494 302.925 476.927C278.984 484.973 258.061 497.375 239.751 511.518C225.376 519.446 208.47 530.481 193.052 545.484C177.783 563.141 158.387 578.587 151.84 597.116C136.483 605.27 122.543 611.566 107.983 620.555C100.918 628.347 91.1729 635.368 80.7053 644.047C73.7938 652.729 65.9514 659.423 57.7944 664.237C49.0928 670.388 38.064 676.734 33.6755 680.353" stroke="#CFDA66" stroke-width="3"/>
<path d="M825.328 6.99452C832.665 15.798 838.718 33.073 829.603 45.4037C823.778 53.0799 807.621 56.5733 799.69 60.4305C788.851 65.2018 769.765 69.5402 762.043 79.5773C754.195 88.7336 759.068 100.549 761.719 108.544C764.535 116.721 766.683 120.716 771.734 127.591C785.673 136.441 799.133 157.181 802.626 173.833C806.514 192.01 794.017 208.342 778.994 216.338C759.657 228.58 737.474 236.384 715.369 246.46C703.669 252.09 687.372 257.084 678.94 263.944C670.154 274.27 666.595 283.935 653.582 293.009C641.263 300.308 623.953 304.149 607.284 304.908C592.515 305.495 579.912 300.302 567.544 296.884C555.25 293.523 542.438 289.605 529.628 290.607C512.56 294.492 500.328 304.41 492.633 314.663C477.115 325.652 446.553 346.695 458.099 377.484C461.607 401.702 460.582 425.21 441.82 444.13C426.136 458.125 404.311 465.037 385.151 468.395C354.521 474.327 323.376 477.928 299.586 489.982C276.724 499.307 257.29 513.487 240.639 528.553C227.449 536.783 212.228 547.82 197.961 562.644C183.865 580.502 164.306 595.086 157.079 612.443C139.616 620.439 123.442 626.193 106.719 635.051C98.5625 642.542 87.502 649.177 76.2666 657.878C69.3533 666.15 61.7688 672.883 54.0012 677.827C45.6115 684.3 34.7386 691.356 31.4154 695.28" stroke="#D3DB69" stroke-width="3"/>
<path d="M828.001 6.61502C836.474 15.9134 843.639 34.8163 833.809 48.2C827.682 56.3475 810.001 59.8326 801.577 63.7397C789.881 68.6752 768.911 73.1364 760.661 83.9907C752.783 93.3414 758.592 105.671 761.577 113.647C764.748 121.828 766.841 125.248 772.173 131.808C787.561 140.784 802.425 163.236 806.296 181.1C810.612 200.68 796.713 218.197 780.395 226.261C759.692 238.358 736.264 245.966 713.116 256.438C701.675 261.91 685.255 266.973 677.593 274.246C669.691 285.382 667.65 296.012 654.981 306.071C643.092 314.132 625.598 318.395 608.862 319.133C593.46 319.723 580.521 313.723 567.796 309.557C555.154 305.455 541.876 300.561 528.471 300.959C511.097 304.006 497.667 313.374 488.906 322.994C471.346 333.442 436.429 355.075 449.514 387.885C453.633 411.835 454.381 435.677 435.849 455.081C420.781 468.944 399.48 475.564 380.804 478.944C350.158 485.089 319.074 489.362 296.246 503.036C274.463 513.641 256.519 529.599 241.527 545.588C229.522 554.12 215.985 565.158 202.87 579.804C189.947 597.863 170.225 611.585 162.317 627.771C142.749 635.608 124.341 640.821 105.455 649.548C96.2067 656.737 83.8311 662.987 71.8279 671.709C64.9128 679.57 57.5861 686.342 50.2081 691.417C42.1301 698.212 31.4132 705.977 29.1553 710.207" stroke="#D6DB6C" stroke-width="3"/>
<path d="M830.675 6.23552C840.283 16.0289 848.559 36.5595 838.015 50.9963C831.585 59.6151 812.381 63.0919 803.464 67.049C790.912 72.1486 768.057 76.7326 759.28 88.4041C751.371 97.9491 758.116 110.793 761.435 118.75C764.96 126.934 766.998 129.779 772.611 136.024C789.449 145.127 805.718 169.29 809.967 188.367C814.709 209.35 799.408 228.052 781.797 236.184C759.726 248.135 735.053 255.548 710.863 266.417C699.68 271.73 683.137 276.863 676.247 284.549C669.228 296.493 668.705 308.09 656.38 319.133C644.922 327.956 627.243 332.641 610.439 333.357C594.405 333.95 581.131 327.145 568.048 322.23C555.057 317.386 541.314 311.517 527.314 311.311C509.635 313.519 495.005 322.338 485.18 331.325C465.578 341.232 426.304 363.455 440.929 398.286C445.66 421.967 448.179 446.143 429.879 466.032C415.426 479.764 394.649 486.091 376.456 489.493C345.794 495.851 314.772 500.796 292.907 516.091C272.202 527.975 255.748 545.711 242.416 562.624C231.595 571.457 219.743 582.497 207.779 596.965C196.029 615.224 176.145 628.084 167.556 643.099C145.882 650.777 125.24 655.448 104.191 664.045C93.8509 670.932 80.1602 676.796 67.3892 685.539C60.4723 692.99 53.4035 699.802 46.415 705.008C38.6487 712.124 28.0878 720.599 26.8952 725.134" stroke="#DADC70" stroke-width="3"/>
<path d="M833.348 5.85602C844.091 16.1443 853.48 38.3028 842.222 53.7926C835.489 62.8827 814.76 66.3513 805.351 70.3582C791.942 75.6221 767.204 80.3288 757.898 92.8176C749.959 102.557 757.64 115.915 761.293 123.852C765.172 132.041 767.156 134.31 773.05 140.241C791.337 149.47 809.011 175.344 813.637 195.634C818.807 218.02 802.104 237.907 783.198 246.107C759.761 257.913 733.843 265.131 708.61 276.396C697.686 281.549 681.02 286.752 674.9 294.852C668.765 307.605 669.759 320.168 657.779 332.195C646.752 341.781 628.888 346.886 612.016 347.581C595.349 348.178 581.74 340.567 568.3 334.904C554.961 329.318 540.752 322.473 526.157 321.663C508.172 323.033 492.344 331.302 481.454 339.657C459.809 349.022 416.18 371.835 432.344 408.687C437.687 432.1 441.978 456.609 423.908 476.983C410.071 490.583 389.819 496.619 372.109 500.041C341.43 506.614 310.47 512.23 289.567 529.145C269.942 542.309 254.977 561.823 243.304 579.659C233.668 588.794 223.501 599.836 212.689 614.125C202.111 632.585 182.064 644.583 172.794 658.426C149.014 665.946 126.139 670.075 102.927 678.541C91.495 685.127 76.4893 690.606 62.9505 699.37C56.0319 706.41 49.2208 713.262 42.6219 718.598C35.1674 726.036 24.7623 735.22 24.6351 740.061" stroke="#DDDD73" stroke-width="3"/>
<path d="M836.082 5.47652C847.96 16.2598 858.46 40.0461 846.488 56.589C839.453 66.1503 817.2 69.6106 807.298 73.6674C793.033 79.0955 766.41 83.925 756.576 97.231C748.606 107.165 757.225 121.037 761.211 128.955C765.445 137.147 767.374 138.841 773.548 144.458C793.285 153.812 812.364 181.398 817.368 202.9C822.965 226.69 804.86 247.761 784.659 256.03C759.856 267.691 732.692 274.713 706.418 286.375C695.752 291.369 678.963 296.641 673.614 305.154C668.363 318.716 670.874 332.246 659.237 345.257C648.641 355.605 630.593 361.132 613.653 361.805C596.354 362.405 582.41 353.989 568.612 347.577C554.924 341.25 540.251 333.428 525.061 332.015C506.77 332.546 489.742 340.266 477.788 347.988C454.101 356.812 406.115 380.215 423.819 419.089C429.774 442.232 435.837 467.075 417.998 487.933C404.777 501.403 385.048 507.146 367.822 510.59C337.127 517.376 306.228 523.664 286.288 542.2C267.741 556.643 254.266 577.935 244.252 596.694C235.801 606.131 227.319 617.174 217.658 631.285C208.253 649.946 188.043 661.082 178.093 673.754C152.207 681.115 127.098 684.703 101.724 693.038C89.1993 699.322 72.8785 704.415 58.5719 713.2C51.6515 719.83 45.0983 726.721 38.8889 732.188C31.7461 739.948 21.497 749.842 22.4351 754.988" stroke="#E0DE76" stroke-width="3"/>
<path d="M838.953 5.09702C851.967 16.3752 863.579 41.7893 850.893 59.3853C843.555 69.4179 819.778 72.8699 809.383 76.9767C794.262 82.5689 765.754 87.5213 755.393 101.644C747.392 111.772 756.947 126.159 761.268 134.058C765.855 142.254 767.73 143.373 774.185 148.674C795.372 158.155 815.855 187.452 821.236 210.167C827.261 235.359 807.754 257.616 786.259 265.954C760.089 277.468 731.68 284.295 704.363 296.354C693.955 301.189 677.044 306.53 672.465 315.457C668.098 329.828 672.127 344.324 660.834 358.319C650.669 369.429 632.436 375.377 615.428 376.029C597.497 376.633 583.218 367.41 569.062 360.25C555.026 353.181 539.887 344.384 524.102 342.366C505.505 342.06 487.279 349.23 474.26 356.319C448.53 364.602 396.189 388.595 415.432 429.49C421.999 452.365 429.834 477.541 412.225 498.884C399.62 512.222 380.416 517.673 363.673 521.139C332.962 528.138 302.124 535.098 283.146 555.255C265.679 570.977 253.693 594.047 245.339 613.73C238.072 623.467 231.275 634.513 222.765 648.445C214.533 667.307 194.16 677.581 183.53 689.081C155.539 696.284 128.195 699.33 100.658 707.535C87.0418 713.517 69.4058 718.224 54.3314 727.031C47.4093 733.25 41.1139 740.181 35.294 745.778C28.463 753.861 18.3699 764.463 20.3733 769.915" stroke="#E4DF7A" stroke-width="3"/>
<path d="M841.942 4.71753C856.09 16.4907 868.815 43.5326 855.415 62.1816C847.774 72.6855 822.473 76.1292 811.585 80.2859C795.607 86.0423 765.216 91.1175 754.327 106.058C746.295 116.38 756.787 131.281 761.441 139.161C766.383 147.36 768.203 147.904 774.939 152.891C797.575 162.498 819.462 193.507 825.222 217.434C831.673 244.029 810.765 267.471 787.976 275.877C760.439 287.246 730.784 293.877 702.425 306.332C692.276 311.009 675.243 316.419 671.434 325.76C667.951 340.939 673.497 356.402 662.548 371.381C652.814 383.253 634.396 389.623 617.32 390.254C598.757 390.86 584.143 380.832 569.63 372.923C555.244 365.113 539.641 355.34 523.261 352.718C504.358 351.573 484.933 358.195 470.849 364.65C443.077 372.392 386.38 396.974 407.162 439.891C414.341 462.497 423.948 488.008 406.57 509.835C394.58 523.042 375.9 528.201 359.64 531.687C328.913 538.9 298.137 546.532 280.122 568.309C263.733 585.311 253.237 610.159 246.543 630.765C240.46 640.804 235.347 651.851 227.99 665.606C220.93 684.668 200.395 694.08 189.084 704.409C158.987 711.453 129.41 713.957 99.7095 722.031C85.0012 727.712 66.0501 732.034 50.208 740.862C43.284 746.67 37.2465 753.64 31.8161 759.369C25.2969 767.773 15.3597 779.085 18.4284 784.842" stroke="#E7DF7D" stroke-width="3"/>
<path d="M845.03 4.33803C860.314 16.6061 874.15 45.2758 860.036 64.9779C852.092 75.953 825.267 79.3885 813.887 83.5952C797.053 89.5157 764.777 94.7137 753.36 110.471C745.298 120.988 756.726 136.403 761.714 144.264C767.01 152.466 768.776 152.435 775.793 157.108C799.878 166.841 823.17 199.561 829.307 224.701C836.186 252.699 813.875 277.326 789.792 285.8C760.889 297.024 729.988 303.459 700.587 316.311C690.697 320.828 673.54 326.308 670.503 336.063C667.902 352.051 674.966 368.48 664.362 384.443C655.058 397.077 636.456 403.869 619.312 404.478C600.117 405.088 585.167 394.254 570.296 385.596C555.563 377.044 539.494 366.296 522.519 363.07C503.31 361.087 482.686 367.159 467.538 372.981C437.723 380.182 376.67 405.354 398.992 450.292C406.783 472.63 418.161 498.474 401.015 520.786C389.64 533.861 371.484 538.728 355.708 542.236C324.964 549.663 294.249 557.966 277.198 581.364C261.888 599.645 252.881 626.271 247.846 647.8C242.948 658.141 239.52 669.19 233.314 682.766C227.427 702.028 206.729 710.58 194.737 719.736C162.534 726.622 130.723 728.585 98.8605 736.528C83.0602 741.907 62.7941 745.843 46.1841 754.692C39.2584 760.09 33.4787 767.1 28.4378 772.959C22.2304 781.685 12.4491 793.707 16.5832 799.769" stroke="#EBE080" stroke-width="3"/>
<path d="M848.204 3.95853C864.623 16.7216 879.571 47.0191 864.743 67.7743C856.497 79.2206 828.148 82.6479 816.274 86.9044C798.584 92.9891 764.424 98.3099 752.479 114.885C744.386 125.595 756.751 141.525 762.072 149.367C767.723 157.573 769.434 156.967 776.732 161.324C802.267 171.184 826.963 205.615 833.478 231.967C840.784 261.369 817.072 287.18 791.694 295.723C761.424 306.801 729.279 313.042 698.835 326.29C689.203 330.648 671.924 336.197 669.657 346.365C667.94 363.162 676.521 380.557 666.261 397.505C657.389 410.901 638.602 418.114 621.39 418.702C601.562 419.315 586.277 407.675 571.049 398.269C555.967 388.976 539.433 377.251 521.863 373.422C502.349 370.6 480.526 376.123 464.313 381.312C432.455 387.972 367.046 413.734 390.908 460.693C399.31 482.762 412.461 508.94 395.545 531.736C384.786 544.681 367.154 549.256 351.861 552.785C321.101 560.425 290.448 569.4 274.359 594.418C260.128 613.979 252.61 642.383 249.235 664.835C245.521 675.478 243.778 686.528 238.724 699.926C234.01 719.389 213.149 727.079 200.476 735.064C166.168 741.791 132.123 743.212 98.0973 751.025C81.2051 756.102 59.6239 759.653 42.2461 768.523C35.3186 773.51 29.7967 780.56 25.1454 786.549C19.2497 795.597 9.62441 808.328 14.8238 814.695" stroke="#EEE184" stroke-width="3"/>
<path d="M851.453 3.57903C869.007 16.837 885.067 48.7623 869.525 70.5706C860.976 82.4882 831.103 85.9072 818.737 90.2136C800.19 96.4626 764.146 101.906 751.673 119.298C743.549 130.203 756.851 146.647 762.506 154.469C768.511 162.679 770.168 161.498 777.746 165.541C804.731 175.527 830.832 211.669 837.724 239.234C845.457 270.039 820.343 297.035 793.671 305.646C762.035 316.579 728.644 322.624 697.158 336.269C687.784 340.468 670.382 346.086 668.886 356.668C668.053 374.274 678.151 392.635 668.236 410.567C659.794 424.726 640.823 432.36 623.543 432.926C603.082 433.543 587.462 421.097 571.876 410.942C556.446 400.907 539.447 388.207 521.282 383.774C501.462 380.113 478.44 385.087 461.162 389.643C427.262 395.762 357.497 422.114 382.898 471.094C391.913 492.895 406.835 519.406 390.15 542.687C380.007 555.5 362.899 559.783 348.09 563.333C317.313 571.187 286.721 580.834 271.595 607.473C258.443 628.313 252.415 658.495 250.699 681.871C248.17 692.815 248.112 703.867 244.208 717.086C240.667 736.75 219.644 743.578 206.29 750.391C169.876 756.96 133.597 757.84 97.409 765.522C79.4248 770.297 56.5285 773.462 38.383 782.354C31.4537 786.93 26.1896 794.019 21.9278 800.14C16.3439 809.509 6.87453 822.95 13.1392 829.622" stroke="#F1E287" stroke-width="3"/>
<path d="M854.768 3.19953C873.457 16.9524 890.629 50.5056 874.373 73.3669C865.521 85.7558 834.124 89.1665 821.265 93.5229C801.862 99.936 763.933 105.502 750.933 123.712C742.778 134.811 757.016 151.769 763.005 159.572C769.364 167.786 770.967 166.029 778.826 169.758C807.26 179.87 834.766 217.723 842.036 246.501C850.196 278.709 823.68 306.89 795.714 315.57C762.711 326.357 728.074 332.206 695.546 346.248C686.431 350.287 668.907 355.976 668.181 366.971C668.232 385.385 679.848 404.713 670.276 423.629C662.265 438.55 643.109 446.605 625.761 447.15C604.669 447.77 588.713 434.519 572.77 423.615C556.991 412.839 539.526 399.163 520.766 394.126C500.64 389.627 476.42 394.051 458.077 397.974C422.135 403.552 348.014 430.494 374.954 481.495C384.581 503.027 401.275 529.872 384.821 553.638C375.293 566.32 358.71 570.31 344.384 573.882C313.591 581.95 283.06 592.268 268.897 620.527C256.823 642.647 252.285 674.607 252.229 698.906C250.884 710.152 252.511 721.206 249.759 734.246C247.39 754.111 226.204 760.077 212.17 765.719C173.651 772.129 135.138 772.467 96.7865 780.018C77.7104 784.492 53.499 787.272 34.5857 796.184C27.6546 800.351 22.6484 807.479 18.7761 813.73C13.5039 823.421 4.19053 837.571 11.5206 844.549" stroke="#F5E38B" stroke-width="3"/>
<path d="M858.141 2.82003C877.966 17.0679 896.249 52.2489 879.279 76.1632C870.125 89.0234 837.204 92.4258 823.852 96.8321C803.592 103.409 763.78 109.098 750.251 128.125C742.066 139.419 757.24 156.891 763.563 164.675C770.277 172.892 771.825 170.561 779.964 173.974C809.848 184.212 838.758 223.777 846.407 253.767C854.994 287.379 827.076 316.745 797.815 325.493C763.446 336.134 727.564 341.788 693.993 356.226C685.137 360.107 667.489 365.865 667.534 377.273C668.469 396.497 681.602 416.791 672.375 436.691C664.794 452.374 645.454 460.851 628.038 461.375C606.313 461.998 590.023 447.94 573.721 436.288C557.594 424.771 539.664 410.118 520.31 404.478C499.878 399.14 474.458 403.015 455.051 406.306C417.067 411.342 338.589 438.874 367.069 491.896C377.308 513.16 395.774 540.339 379.55 564.588C370.639 577.139 354.579 580.838 340.736 584.431C309.927 592.712 279.458 603.703 266.257 633.582C255.263 656.981 252.214 690.719 253.817 715.941C253.657 727.489 256.968 738.544 255.368 751.407C254.172 771.472 232.823 776.576 218.109 781.047C177.483 787.298 136.737 787.094 96.2226 794.515C76.0545 798.687 50.528 801.081 30.8469 810.015C23.914 813.771 19.1656 820.938 15.6829 827.32C10.7225 837.333 1.56503 852.193 9.96039 859.476" stroke="#F8E38E" stroke-width="3"/>
<path d="M861.567 2.44053C882.527 17.1833 901.922 53.9921 884.238 78.9595C874.781 92.291 840.336 95.6852 826.491 100.141C805.375 106.883 763.678 112.695 749.622 132.538C741.406 144.026 757.517 162.013 764.173 169.778C771.241 177.999 772.735 175.092 781.155 178.191C812.489 188.555 842.803 229.832 850.829 261.034C859.844 296.049 830.524 326.599 799.969 335.416C764.233 345.912 727.105 351.371 692.493 366.205C683.895 369.927 666.125 375.754 666.94 387.576C668.758 407.608 683.409 428.869 674.526 449.753C667.376 466.198 647.851 475.097 630.368 475.599C608.01 476.225 591.385 461.362 574.726 448.962C558.25 436.702 539.855 421.074 519.905 414.83C499.168 408.654 472.549 411.98 452.077 414.637C412.05 419.132 329.217 447.254 359.236 502.297C370.087 523.292 390.325 550.805 374.332 575.539C366.036 587.959 350.501 591.365 337.141 594.979C306.316 603.474 275.908 615.137 263.67 646.637C253.754 671.315 252.195 706.831 255.457 732.977C256.482 744.826 261.478 755.883 261.03 768.567C261.007 788.833 239.495 793.075 224.1 796.374C181.369 802.467 138.388 801.722 95.7111 809.012C74.451 812.882 47.6094 814.891 27.1605 823.846C20.2259 827.191 15.7353 834.398 12.6421 840.91C7.99343 851.245 -1.00805 866.814 8.45262 874.403" stroke="#FCE491" stroke-width="3"/>
<path d="M806.614 9.65102C806.005 14.9898 804.275 20.8702 800.158 25.8294C796.452 30.2067 790.964 33.758 786.482 37.2658C781.638 40.8879 775.741 44.3668 771.714 48.6832C764.081 56.4795 762.398 64.6948 762.713 72.8241C763.049 80.9763 765.578 88.9971 768.664 98.0743C772.456 106.041 776.084 114.802 776.933 122.966C777.831 131.321 775.147 139.359 769.184 146.875C759.413 160.136 745.949 169.308 731.139 176.608C717.63 183.352 702.192 187.86 688.365 191.825C673.394 196.49 659.213 199.389 643.791 201.575C628.456 203.539 612.438 204.43 596.245 205.339C585.902 205.903 575.645 206.35 565.781 208.172C555.926 210.002 546.37 212.915 537.725 218.144C522.798 227.898 518.958 241.66 518.715 256.345C517.495 271.122 517.425 288.036 518.195 304.677C517.419 330.775 503.991 351.947 483.613 367.475C463.62 382.388 438.125 391.345 415.582 394.555C385.067 398.991 353.492 397.889 322.962 398.6C292.548 398.97 262.688 400.702 234.42 409.306C212.938 415.425 185.924 426.45 163.597 442.523C141.291 458.975 122.872 479.593 120.409 505.151C117.686 514.256 117.15 523.802 115.566 533.575C115.053 543.177 113.198 552.511 107.337 561.063C100.437 572.209 91.0473 578.666 80.5531 582.695C69.981 586.915 58.0165 589.005 47.236 590.791" stroke="#BBD551" stroke-width="3"/>
<path d="M809.287 9.27152C809.814 15.1053 809.196 22.6135 804.364 28.6257C800.356 33.4743 793.343 37.0174 788.369 40.5751C782.668 44.3613 774.887 47.963 770.333 53.0967C762.669 61.0872 761.922 69.8168 762.571 77.927C763.261 86.0827 765.736 93.5284 769.103 102.291C774.344 110.384 779.377 120.856 780.603 130.233C781.928 139.991 777.843 149.214 770.586 156.798C759.448 169.914 744.738 178.89 728.886 186.587C715.636 193.172 700.074 197.75 687.018 202.127C672.931 207.601 660.268 211.467 645.19 214.637C630.285 217.363 614.083 218.676 597.822 219.563C586.847 220.13 576.255 219.772 566.033 220.846C555.83 221.934 545.808 223.871 536.568 228.496C521.335 237.412 516.296 250.625 514.989 264.676C511.727 278.912 507.3 296.416 509.61 315.078C509.446 340.907 497.79 362.413 477.643 378.426C458.265 393.208 433.295 401.872 411.235 405.103C380.703 409.753 349.19 409.323 319.622 411.654C290.287 413.304 261.916 416.814 235.309 426.341C215.011 432.762 189.681 443.788 168.506 459.683C147.373 476.336 128.791 496.092 125.648 520.478C120.819 529.425 118.049 538.429 114.302 548.071C112.697 557.372 109.527 566.321 102.899 574.894C95.9961 585.629 86.8647 592.125 76.7599 596.285C66.4996 600.828 54.691 603.626 44.9759 605.718" stroke="#BED655" stroke-width="3"/>
<path d="M811.961 8.89202C813.623 15.2207 814.116 24.3567 808.571 31.422C804.259 36.7419 795.723 40.2767 790.256 43.8843C783.699 47.8347 774.034 51.5592 768.951 57.5101C761.257 65.695 761.446 74.9388 762.429 83.0298C763.474 91.1891 765.894 98.0597 769.541 106.508C776.232 114.727 782.669 126.911 784.273 137.5C786.026 148.661 780.538 159.069 771.987 166.722C759.483 179.692 743.527 188.473 726.633 196.565C713.641 202.991 697.957 207.639 685.672 212.43C672.468 218.713 661.322 223.545 646.589 227.699C632.115 231.187 615.728 232.921 599.399 233.787C587.791 234.358 576.864 233.193 566.285 233.519C555.733 233.865 545.246 234.827 535.411 238.847C519.872 246.925 513.635 259.589 511.263 273.008C505.958 286.702 497.176 304.796 501.024 325.479C501.472 351.04 491.589 372.879 471.672 389.377C452.91 404.027 428.464 412.4 406.888 415.652C376.34 420.516 344.888 420.757 316.283 424.709C288.027 427.638 261.145 432.926 236.197 443.377C217.084 450.098 193.439 461.127 173.415 476.843C153.455 493.697 134.71 512.591 130.886 535.806C123.952 544.594 118.948 553.056 113.038 562.568C110.342 571.567 105.856 580.13 98.46 588.725C91.5557 599.049 82.682 605.585 72.9668 609.876C63.0183 614.74 51.3656 618.248 42.7158 620.645" stroke="#C2D758" stroke-width="3"/>
<path d="M814.634 8.51252C817.431 15.3362 819.037 26.1 812.777 34.2184C808.163 40.0095 798.103 43.536 792.143 47.1935C784.729 51.3081 773.18 55.1554 767.569 61.9235C759.845 70.3027 760.971 80.0608 762.287 88.1326C763.686 96.2956 766.051 102.591 769.98 110.724C778.12 119.07 785.962 132.965 787.944 144.767C790.124 157.331 783.234 168.923 773.388 176.645C759.518 189.469 742.317 198.055 724.38 206.544C711.647 212.811 695.84 217.528 684.325 222.733C672.005 229.824 662.377 235.623 647.987 240.761C633.944 245.011 617.373 247.167 600.976 248.012C588.736 248.585 577.474 246.615 566.537 246.192C555.637 245.797 544.685 245.782 534.255 249.199C518.41 256.439 510.974 268.553 507.537 281.339C500.189 294.492 487.051 313.176 492.439 335.88C493.499 361.172 485.387 383.346 465.702 400.328C447.555 414.847 423.633 422.927 402.54 426.201C371.976 431.278 340.585 432.191 312.944 437.764C285.766 441.972 260.374 449.039 237.086 460.412C219.157 467.435 197.197 478.465 178.324 494.003C159.537 511.058 140.629 529.09 136.125 551.133C127.084 559.763 119.847 567.684 111.774 577.065C107.986 585.762 102.186 593.94 94.0214 602.555C87.1152 612.469 78.4994 619.044 69.1737 623.466C59.5369 628.652 48.0402 632.869 40.4557 635.572" stroke="#C5D75B" stroke-width="3"/>
<path d="M817.308 8.13302C821.24 15.4516 823.957 27.8433 816.983 37.0147C812.067 43.2771 800.482 46.7953 794.03 50.5028C785.76 54.7815 772.326 58.7516 766.188 66.337C758.432 74.9104 760.495 85.1828 762.145 93.2355C763.898 101.402 766.209 107.122 770.418 114.941C780.008 123.413 789.255 139.019 791.614 152.033C794.221 166.001 785.93 178.778 774.79 186.568C759.553 199.247 741.106 207.637 722.128 216.523C709.652 222.631 693.723 227.417 682.979 233.036C671.543 240.936 663.431 247.701 649.386 253.823C635.774 258.835 619.018 261.413 602.553 262.236C589.681 262.813 578.083 260.037 566.789 258.865C555.54 257.728 544.123 256.738 533.098 259.551C516.947 265.952 508.312 277.517 503.811 289.67C494.421 302.282 476.927 321.556 483.854 346.281C485.526 371.305 479.186 393.812 459.731 411.278C442.2 425.666 418.803 433.455 398.193 436.749C367.612 442.04 336.283 443.625 309.604 450.818C283.505 456.305 259.603 465.151 237.974 477.447C221.23 484.772 200.954 495.804 183.234 511.164C165.619 528.419 146.549 545.589 141.363 566.461C130.217 574.932 120.746 582.311 110.511 591.561C105.63 599.957 98.5147 607.749 89.5827 616.386C82.6747 625.889 74.3167 632.504 65.3806 637.056C56.0556 642.564 44.7148 647.491 38.1956 650.499" stroke="#C9D85F" stroke-width="3"/>
<path d="M819.981 7.75352C825.048 15.5671 828.877 29.5865 821.19 39.811C815.971 46.5447 802.862 50.0546 795.917 53.812C786.79 58.255 771.472 62.3478 764.806 70.7504C757.02 79.5182 760.019 90.3048 762.003 98.3383C764.111 106.508 766.367 111.654 770.857 119.158C781.896 127.755 792.547 145.073 795.285 159.3C798.319 174.67 788.626 188.633 776.191 196.491C759.587 209.025 739.896 217.219 719.875 226.502C707.658 232.451 691.606 237.306 681.633 243.338C671.08 252.047 664.486 259.779 650.785 266.885C637.604 272.66 620.663 275.658 604.13 276.46C590.626 277.04 578.693 273.458 567.041 271.538C555.443 269.66 543.561 267.694 531.941 269.903C515.485 275.466 505.651 286.481 500.085 298.001C488.652 310.072 466.802 329.936 475.269 356.682C477.553 381.437 472.985 404.278 453.761 422.229C436.846 436.486 413.972 443.982 393.846 447.298C363.249 452.802 331.981 455.059 306.265 463.873C281.245 470.639 258.832 481.263 238.862 494.482C223.303 502.109 204.712 513.143 188.143 528.324C171.701 545.78 152.468 562.088 146.602 581.788C133.35 590.101 121.644 596.938 109.247 606.058C103.274 614.152 94.8438 621.558 85.144 630.217C78.2342 639.309 70.1341 645.964 61.5875 650.646C52.5742 656.476 41.3894 662.113 35.9356 665.426" stroke="#CCD962" stroke-width="3"/>
<path d="M822.654 7.37402C828.857 15.6825 833.798 31.3298 825.396 42.6073C819.874 49.8123 805.242 53.314 797.804 57.1212C787.821 61.7284 770.619 65.944 763.424 75.1638C755.608 84.1259 759.543 95.4268 761.861 103.441C764.323 111.615 766.525 116.185 771.296 123.374C783.785 132.098 795.84 151.127 798.955 166.567C802.416 183.34 791.321 198.488 777.592 206.414C759.622 218.802 738.685 226.802 717.622 236.481C705.663 242.27 689.489 247.195 680.286 253.641C670.617 263.159 665.541 271.857 652.184 279.947C639.433 286.484 622.308 289.904 605.707 290.684C591.57 291.268 579.302 286.88 567.293 284.211C555.347 281.592 542.999 278.65 530.784 280.255C514.022 284.979 502.989 295.445 496.359 306.332C482.884 317.862 456.678 338.315 466.684 367.083C469.58 391.57 466.783 414.744 447.79 433.18C431.491 447.305 409.141 454.509 389.498 457.847C358.885 463.565 327.679 466.494 302.925 476.927C278.984 484.973 258.061 497.375 239.751 511.518C225.376 519.446 208.47 530.481 193.052 545.484C177.783 563.141 158.387 578.587 151.84 597.116C136.483 605.27 122.543 611.566 107.983 620.555C100.918 628.347 91.1729 635.368 80.7053 644.047C73.7938 652.729 65.9514 659.423 57.7944 664.237C49.0928 670.388 38.064 676.734 33.6755 680.353" stroke="#CFDA66" stroke-width="3"/>
<path d="M825.328 6.99452C832.665 15.798 838.718 33.073 829.603 45.4037C823.778 53.0799 807.621 56.5733 799.69 60.4305C788.851 65.2018 769.765 69.5402 762.043 79.5773C754.195 88.7336 759.068 100.549 761.719 108.544C764.535 116.721 766.683 120.716 771.734 127.591C785.673 136.441 799.133 157.181 802.626 173.833C806.514 192.01 794.017 208.342 778.994 216.338C759.657 228.58 737.474 236.384 715.369 246.46C703.669 252.09 687.372 257.084 678.94 263.944C670.154 274.27 666.595 283.935 653.582 293.009C641.263 300.308 623.953 304.149 607.284 304.908C592.515 305.495 579.912 300.302 567.544 296.884C555.25 293.523 542.438 289.605 529.628 290.607C512.56 294.492 500.328 304.41 492.633 314.663C477.115 325.652 446.553 346.695 458.099 377.484C461.607 401.702 460.582 425.21 441.82 444.13C426.136 458.125 404.311 465.037 385.151 468.395C354.521 474.327 323.376 477.928 299.586 489.982C276.724 499.307 257.29 513.487 240.639 528.553C227.449 536.783 212.228 547.82 197.961 562.644C183.865 580.502 164.306 595.086 157.079 612.443C139.616 620.439 123.442 626.193 106.719 635.051C98.5625 642.542 87.502 649.177 76.2666 657.878C69.3533 666.15 61.7688 672.883 54.0012 677.827C45.6115 684.3 34.7386 691.356 31.4154 695.28" stroke="#D3DB69" stroke-width="3"/>
<path d="M828.001 6.61502C836.474 15.9134 843.639 34.8163 833.809 48.2C827.682 56.3475 810.001 59.8326 801.577 63.7397C789.881 68.6752 768.911 73.1364 760.661 83.9907C752.783 93.3414 758.592 105.671 761.577 113.647C764.748 121.828 766.841 125.248 772.173 131.808C787.561 140.784 802.425 163.236 806.296 181.1C810.612 200.68 796.713 218.197 780.395 226.261C759.692 238.358 736.264 245.966 713.116 256.438C701.675 261.91 685.255 266.973 677.593 274.246C669.691 285.382 667.65 296.012 654.981 306.071C643.092 314.132 625.598 318.395 608.862 319.133C593.46 319.723 580.521 313.723 567.796 309.557C555.154 305.455 541.876 300.561 528.471 300.959C511.097 304.006 497.667 313.374 488.906 322.994C471.346 333.442 436.429 355.075 449.514 387.885C453.633 411.835 454.381 435.677 435.849 455.081C420.781 468.944 399.48 475.564 380.804 478.944C350.158 485.089 319.074 489.362 296.246 503.036C274.463 513.641 256.519 529.599 241.527 545.588C229.522 554.12 215.985 565.158 202.87 579.804C189.947 597.863 170.225 611.585 162.317 627.771C142.749 635.608 124.341 640.821 105.455 649.548C96.2067 656.737 83.8311 662.987 71.8279 671.709C64.9128 679.57 57.5861 686.342 50.2081 691.417C42.1301 698.212 31.4132 705.977 29.1553 710.207" stroke="#D6DB6C" stroke-width="3"/>
<path d="M830.675 6.23552C840.283 16.0289 848.559 36.5595 838.015 50.9963C831.585 59.6151 812.381 63.0919 803.464 67.049C790.912 72.1486 768.057 76.7326 759.28 88.4041C751.371 97.9491 758.116 110.793 761.435 118.75C764.96 126.934 766.998 129.779 772.611 136.024C789.449 145.127 805.718 169.29 809.967 188.367C814.709 209.35 799.408 228.052 781.797 236.184C759.726 248.135 735.053 255.548 710.863 266.417C699.68 271.73 683.137 276.863 676.247 284.549C669.228 296.493 668.705 308.09 656.38 319.133C644.922 327.956 627.243 332.641 610.439 333.357C594.405 333.95 581.131 327.145 568.048 322.23C555.057 317.386 541.314 311.517 527.314 311.311C509.635 313.519 495.005 322.338 485.18 331.325C465.578 341.232 426.304 363.455 440.929 398.286C445.66 421.967 448.179 446.143 429.879 466.032C415.426 479.764 394.649 486.091 376.456 489.493C345.794 495.851 314.772 500.796 292.907 516.091C272.202 527.975 255.748 545.711 242.416 562.624C231.595 571.457 219.743 582.497 207.779 596.965C196.029 615.224 176.145 628.084 167.556 643.099C145.882 650.777 125.24 655.448 104.191 664.045C93.8509 670.932 80.1602 676.796 67.3892 685.539C60.4723 692.99 53.4035 699.802 46.415 705.008C38.6487 712.124 28.0878 720.599 26.8952 725.134" stroke="#DADC70" stroke-width="3"/>
<path d="M833.348 5.85602C844.091 16.1443 853.48 38.3028 842.222 53.7926C835.489 62.8827 814.76 66.3513 805.351 70.3582C791.942 75.6221 767.204 80.3288 757.898 92.8176C749.959 102.557 757.64 115.915 761.293 123.852C765.172 132.041 767.156 134.31 773.05 140.241C791.337 149.47 809.011 175.344 813.637 195.634C818.807 218.02 802.104 237.907 783.198 246.107C759.761 257.913 733.843 265.131 708.61 276.396C697.686 281.549 681.02 286.752 674.9 294.852C668.765 307.605 669.759 320.168 657.779 332.195C646.752 341.781 628.888 346.886 612.016 347.581C595.349 348.178 581.74 340.567 568.3 334.904C554.961 329.318 540.752 322.473 526.157 321.663C508.172 323.033 492.344 331.302 481.454 339.657C459.809 349.022 416.18 371.835 432.344 408.687C437.687 432.1 441.978 456.609 423.908 476.983C410.071 490.583 389.819 496.619 372.109 500.041C341.43 506.614 310.47 512.23 289.567 529.145C269.942 542.309 254.977 561.823 243.304 579.659C233.668 588.794 223.501 599.836 212.689 614.125C202.111 632.585 182.064 644.583 172.794 658.426C149.014 665.946 126.139 670.075 102.927 678.541C91.495 685.127 76.4893 690.606 62.9505 699.37C56.0319 706.41 49.2208 713.262 42.6219 718.598C35.1674 726.036 24.7623 735.22 24.6351 740.061" stroke="#DDDD73" stroke-width="3"/>
<path d="M836.082 5.47652C847.96 16.2598 858.46 40.0461 846.488 56.589C839.453 66.1503 817.2 69.6106 807.298 73.6674C793.033 79.0955 766.41 83.925 756.576 97.231C748.606 107.165 757.225 121.037 761.211 128.955C765.445 137.147 767.374 138.841 773.548 144.458C793.285 153.812 812.364 181.398 817.368 202.9C822.965 226.69 804.86 247.761 784.659 256.03C759.856 267.691 732.692 274.713 706.418 286.375C695.752 291.369 678.963 296.641 673.614 305.154C668.363 318.716 670.874 332.246 659.237 345.257C648.641 355.605 630.593 361.132 613.653 361.805C596.354 362.405 582.41 353.989 568.612 347.577C554.924 341.25 540.251 333.428 525.061 332.015C506.77 332.546 489.742 340.266 477.788 347.988C454.101 356.812 406.115 380.215 423.819 419.089C429.774 442.232 435.837 467.075 417.998 487.933C404.777 501.403 385.048 507.146 367.822 510.59C337.127 517.376 306.228 523.664 286.288 542.2C267.741 556.643 254.266 577.935 244.252 596.694C235.801 606.131 227.319 617.174 217.658 631.285C208.253 649.946 188.043 661.082 178.093 673.754C152.207 681.115 127.098 684.703 101.724 693.038C89.1993 699.322 72.8785 704.415 58.5719 713.2C51.6515 719.83 45.0983 726.721 38.8889 732.188C31.7461 739.948 21.497 749.842 22.4351 754.988" stroke="#E0DE76" stroke-width="3"/>
<path d="M838.953 5.09702C851.967 16.3752 863.579 41.7893 850.893 59.3853C843.555 69.4179 819.778 72.8699 809.383 76.9767C794.262 82.5689 765.754 87.5213 755.393 101.644C747.392 111.772 756.947 126.159 761.268 134.058C765.855 142.254 767.73 143.373 774.185 148.674C795.372 158.155 815.855 187.452 821.236 210.167C827.261 235.359 807.754 257.616 786.259 265.954C760.089 277.468 731.68 284.295 704.363 296.354C693.955 301.189 677.044 306.53 672.465 315.457C668.098 329.828 672.127 344.324 660.834 358.319C650.669 369.429 632.436 375.377 615.428 376.029C597.497 376.633 583.218 367.41 569.062 360.25C555.026 353.181 539.887 344.384 524.102 342.366C505.505 342.06 487.279 349.23 474.26 356.319C448.53 364.602 396.189 388.595 415.432 429.49C421.999 452.365 429.834 477.541 412.225 498.884C399.62 512.222 380.416 517.673 363.673 521.139C332.962 528.138 302.124 535.098 283.146 555.255C265.679 570.977 253.693 594.047 245.339 613.73C238.072 623.467 231.275 634.513 222.765 648.445C214.533 667.307 194.16 677.581 183.53 689.081C155.539 696.284 128.195 699.33 100.658 707.535C87.0418 713.517 69.4058 718.224 54.3314 727.031C47.4093 733.25 41.1139 740.181 35.294 745.778C28.463 753.861 18.3699 764.463 20.3733 769.915" stroke="#E4DF7A" stroke-width="3"/>
<path d="M841.942 4.71753C856.09 16.4907 868.815 43.5326 855.415 62.1816C847.774 72.6855 822.473 76.1292 811.585 80.2859C795.607 86.0423 765.216 91.1175 754.327 106.058C746.295 116.38 756.787 131.281 761.441 139.161C766.383 147.36 768.203 147.904 774.939 152.891C797.575 162.498 819.462 193.507 825.222 217.434C831.673 244.029 810.765 267.471 787.976 275.877C760.439 287.246 730.784 293.877 702.425 306.332C692.276 311.009 675.243 316.419 671.434 325.76C667.951 340.939 673.497 356.402 662.548 371.381C652.814 383.253 634.396 389.623 617.32 390.254C598.757 390.86 584.143 380.832 569.63 372.923C555.244 365.113 539.641 355.34 523.261 352.718C504.358 351.573 484.933 358.195 470.849 364.65C443.077 372.392 386.38 396.974 407.162 439.891C414.341 462.497 423.948 488.008 406.57 509.835C394.58 523.042 375.9 528.201 359.64 531.687C328.913 538.9 298.137 546.532 280.122 568.309C263.733 585.311 253.237 610.159 246.543 630.765C240.46 640.804 235.347 651.851 227.99 665.606C220.93 684.668 200.395 694.08 189.084 704.409C158.987 711.453 129.41 713.957 99.7095 722.031C85.0012 727.712 66.0501 732.034 50.208 740.862C43.284 746.67 37.2465 753.64 31.8161 759.369C25.2969 767.773 15.3597 779.085 18.4284 784.842" stroke="#E7DF7D" stroke-width="3"/>
<path d="M845.03 4.33803C860.314 16.6061 874.15 45.2758 860.036 64.9779C852.092 75.953 825.267 79.3885 813.887 83.5952C797.053 89.5157 764.777 94.7137 753.36 110.471C745.298 120.988 756.726 136.403 761.714 144.264C767.01 152.466 768.776 152.435 775.793 157.108C799.878 166.841 823.17 199.561 829.307 224.701C836.186 252.699 813.875 277.326 789.792 285.8C760.889 297.024 729.988 303.459 700.587 316.311C690.697 320.828 673.54 326.308 670.503 336.063C667.902 352.051 674.966 368.48 664.362 384.443C655.058 397.077 636.456 403.869 619.312 404.478C600.117 405.088 585.167 394.254 570.296 385.596C555.563 377.044 539.494 366.296 522.519 363.07C503.31 361.087 482.686 367.159 467.538 372.981C437.723 380.182 376.67 405.354 398.992 450.292C406.783 472.63 418.161 498.474 401.015 520.786C389.64 533.861 371.484 538.728 355.708 542.236C324.964 549.663 294.249 557.966 277.198 581.364C261.888 599.645 252.881 626.271 247.846 647.8C242.948 658.141 239.52 669.19 233.314 682.766C227.427 702.028 206.729 710.58 194.737 719.736C162.534 726.622 130.723 728.585 98.8605 736.528C83.0602 741.907 62.7941 745.843 46.1841 754.692C39.2584 760.09 33.4787 767.1 28.4378 772.959C22.2304 781.685 12.4491 793.707 16.5832 799.769" stroke="#EBE080" stroke-width="3"/>
<path d="M848.204 3.95853C864.623 16.7216 879.571 47.0191 864.743 67.7743C856.497 79.2206 828.148 82.6479 816.274 86.9044C798.584 92.9891 764.424 98.3099 752.479 114.885C744.386 125.595 756.751 141.525 762.072 149.367C767.723 157.573 769.434 156.967 776.732 161.324C802.267 171.184 826.963 205.615 833.478 231.967C840.784 261.369 817.072 287.18 791.694 295.723C761.424 306.801 729.279 313.042 698.835 326.29C689.203 330.648 671.924 336.197 669.657 346.365C667.94 363.162 676.521 380.557 666.261 397.505C657.389 410.901 638.602 418.114 621.39 418.702C601.562 419.315 586.277 407.675 571.049 398.269C555.967 388.976 539.433 377.251 521.863 373.422C502.349 370.6 480.526 376.123 464.313 381.312C432.455 387.972 367.046 413.734 390.908 460.693C399.31 482.762 412.461 508.94 395.545 531.736C384.786 544.681 367.154 549.256 351.861 552.785C321.101 560.425 290.448 569.4 274.359 594.418C260.128 613.979 252.61 642.383 249.235 664.835C245.521 675.478 243.778 686.528 238.724 699.926C234.01 719.389 213.149 727.079 200.476 735.064C166.168 741.791 132.123 743.212 98.0973 751.025C81.2051 756.102 59.6239 759.653 42.2461 768.523C35.3186 773.51 29.7967 780.56 25.1454 786.549C19.2497 795.597 9.62441 808.328 14.8238 814.695" stroke="#EEE184" stroke-width="3"/>
<path d="M851.453 3.57903C869.007 16.837 885.067 48.7623 869.525 70.5706C860.976 82.4882 831.103 85.9072 818.737 90.2136C800.19 96.4626 764.146 101.906 751.673 119.298C743.549 130.203 756.851 146.647 762.506 154.469C768.511 162.679 770.168 161.498 777.746 165.541C804.731 175.527 830.832 211.669 837.724 239.234C845.457 270.039 820.343 297.035 793.671 305.646C762.035 316.579 728.644 322.624 697.158 336.269C687.784 340.468 670.382 346.086 668.886 356.668C668.053 374.274 678.151 392.635 668.236 410.567C659.794 424.726 640.823 432.36 623.543 432.926C603.082 433.543 587.462 421.097 571.876 410.942C556.446 400.907 539.447 388.207 521.282 383.774C501.462 380.113 478.44 385.087 461.162 389.643C427.262 395.762 357.497 422.114 382.898 471.094C391.913 492.895 406.835 519.406 390.15 542.687C380.007 555.5 362.899 559.783 348.09 563.333C317.313 571.187 286.721 580.834 271.595 607.473C258.443 628.313 252.415 658.495 250.699 681.871C248.17 692.815 248.112 703.867 244.208 717.086C240.667 736.75 219.644 743.578 206.29 750.391C169.876 756.96 133.597 757.84 97.409 765.522C79.4248 770.297 56.5285 773.462 38.383 782.354C31.4537 786.93 26.1896 794.019 21.9278 800.14C16.3439 809.509 6.87453 822.95 13.1392 829.622" stroke="#F1E287" stroke-width="3"/>
<path d="M854.768 3.19953C873.457 16.9524 890.629 50.5056 874.373 73.3669C865.521 85.7558 834.124 89.1665 821.265 93.5229C801.862 99.936 763.933 105.502 750.933 123.712C742.778 134.811 757.016 151.769 763.005 159.572C769.364 167.786 770.967 166.029 778.826 169.758C807.26 179.87 834.766 217.723 842.036 246.501C850.196 278.709 823.68 306.89 795.714 315.57C762.711 326.357 728.074 332.206 695.546 346.248C686.431 350.287 668.907 355.976 668.181 366.971C668.232 385.385 679.848 404.713 670.276 423.629C662.265 438.55 643.109 446.605 625.761 447.15C604.669 447.77 588.713 434.519 572.77 423.615C556.991 412.839 539.526 399.163 520.766 394.126C500.64 389.627 476.42 394.051 458.077 397.974C422.135 403.552 348.014 430.494 374.954 481.495C384.581 503.027 401.275 529.872 384.821 553.638C375.293 566.32 358.71 570.31 344.384 573.882C313.591 581.95 283.06 592.268 268.897 620.527C256.823 642.647 252.285 674.607 252.229 698.906C250.884 710.152 252.511 721.206 249.759 734.246C247.39 754.111 226.204 760.077 212.17 765.719C173.651 772.129 135.138 772.467 96.7865 780.018C77.7104 784.492 53.499 787.272 34.5857 796.184C27.6546 800.351 22.6484 807.479 18.7761 813.73C13.5039 823.421 4.19053 837.571 11.5206 844.549" stroke="#F5E38B" stroke-width="3"/>
<path d="M858.141 2.82003C877.966 17.0679 896.249 52.2489 879.279 76.1632C870.125 89.0234 837.204 92.4258 823.852 96.8321C803.592 103.409 763.78 109.098 750.251 128.125C742.066 139.419 757.24 156.891 763.563 164.675C770.277 172.892 771.825 170.561 779.964 173.974C809.848 184.212 838.758 223.777 846.407 253.767C854.994 287.379 827.076 316.745 797.815 325.493C763.446 336.134 727.564 341.788 693.993 356.226C685.137 360.107 667.489 365.865 667.534 377.273C668.469 396.497 681.602 416.791 672.375 436.691C664.794 452.374 645.454 460.851 628.038 461.375C606.313 461.998 590.023 447.94 573.721 436.288C557.594 424.771 539.664 410.118 520.31 404.478C499.878 399.14 474.458 403.015 455.051 406.306C417.067 411.342 338.589 438.874 367.069 491.896C377.308 513.16 395.774 540.339 379.55 564.588C370.639 577.139 354.579 580.838 340.736 584.431C309.927 592.712 279.458 603.703 266.257 633.582C255.263 656.981 252.214 690.719 253.817 715.941C253.657 727.489 256.968 738.544 255.368 751.407C254.172 771.472 232.823 776.576 218.109 781.047C177.483 787.298 136.737 787.094 96.2226 794.515C76.0545 798.687 50.528 801.081 30.8469 810.015C23.914 813.771 19.1656 820.938 15.6829 827.32C10.7225 837.333 1.56503 852.193 9.96039 859.476" stroke="#F8E38E" stroke-width="3"/>
<path d="M861.567 2.44053C882.527 17.1833 901.922 53.9921 884.238 78.9595C874.781 92.291 840.336 95.6852 826.491 100.141C805.375 106.883 763.678 112.695 749.622 132.538C741.406 144.026 757.517 162.013 764.173 169.778C771.241 177.999 772.735 175.092 781.155 178.191C812.489 188.555 842.803 229.832 850.829 261.034C859.844 296.049 830.524 326.599 799.969 335.416C764.233 345.912 727.105 351.371 692.493 366.205C683.895 369.927 666.125 375.754 666.94 387.576C668.758 407.608 683.409 428.869 674.526 449.753C667.376 466.198 647.851 475.097 630.368 475.599C608.01 476.225 591.385 461.362 574.726 448.962C558.25 436.702 539.855 421.074 519.905 414.83C499.168 408.654 472.549 411.98 452.077 414.637C412.05 419.132 329.217 447.254 359.236 502.297C370.087 523.292 390.325 550.805 374.332 575.539C366.036 587.959 350.501 591.365 337.141 594.979C306.316 603.474 275.908 615.137 263.67 646.637C253.754 671.315 252.195 706.831 255.457 732.977C256.482 744.826 261.478 755.883 261.03 768.567C261.007 788.833 239.495 793.075 224.1 796.374C181.369 802.467 138.388 801.722 95.7111 809.012C74.451 812.882 47.6094 814.891 27.1605 823.846C20.2259 827.191 15.7353 834.398 12.6421 840.91C7.99343 851.245 -1.00805 866.814 8.45262 874.403" stroke="#FCE491" stroke-width="3"/>
</svg>
